%TF.GenerationSoftware,KiCad,Pcbnew,10.0.3*%
%TF.CreationDate,2026-06-04T20:55:22+02:00*%
%TF.ProjectId,BogenampelV3,426f6765-6e61-46d7-9065-6c56332e6b69,3.0*%
%TF.SameCoordinates,Original*%
%TF.FileFunction,Paste,Top*%
%TF.FilePolarity,Positive*%
%FSLAX46Y46*%
G04 Gerber Fmt 4.6, Leading zero omitted, Abs format (unit mm)*
G04 Created by KiCad (PCBNEW 10.0.3) date 2026-06-04 20:55:22*
%MOMM*%
%LPD*%
G01*
G04 APERTURE LIST*
G04 Aperture macros list*
%AMRoundRect*
0 Rectangle with rounded corners*
0 $1 Rounding radius*
0 $2 $3 $4 $5 $6 $7 $8 $9 X,Y pos of 4 corners*
0 Add a 4 corners polygon primitive as box body*
4,1,4,$2,$3,$4,$5,$6,$7,$8,$9,$2,$3,0*
0 Add four circle primitives for the rounded corners*
1,1,$1+$1,$2,$3*
1,1,$1+$1,$4,$5*
1,1,$1+$1,$6,$7*
1,1,$1+$1,$8,$9*
0 Add four rect primitives between the rounded corners*
20,1,$1+$1,$2,$3,$4,$5,0*
20,1,$1+$1,$4,$5,$6,$7,0*
20,1,$1+$1,$6,$7,$8,$9,0*
20,1,$1+$1,$8,$9,$2,$3,0*%
%AMFreePoly0*
4,1,11,0.750000,0.885000,0.300000,0.440500,0.300000,-0.440500,0.750000,-0.885000,0.750000,-1.850000,0.225000,-1.850000,-0.300000,-1.325000,-0.300000,1.325000,0.225000,1.850000,0.750000,1.850000,0.750000,0.885000,0.750000,0.885000,$1*%
G04 Aperture macros list end*
%ADD10RoundRect,0.250000X0.312500X0.625000X-0.312500X0.625000X-0.312500X-0.625000X0.312500X-0.625000X0*%
%ADD11RoundRect,0.250000X0.250000X0.475000X-0.250000X0.475000X-0.250000X-0.475000X0.250000X-0.475000X0*%
%ADD12RoundRect,0.250000X0.262500X0.450000X-0.262500X0.450000X-0.262500X-0.450000X0.262500X-0.450000X0*%
%ADD13RoundRect,0.250000X-0.312500X-0.625000X0.312500X-0.625000X0.312500X0.625000X-0.312500X0.625000X0*%
%ADD14RoundRect,0.250000X-0.250000X-0.475000X0.250000X-0.475000X0.250000X0.475000X-0.250000X0.475000X0*%
%ADD15RoundRect,0.225000X-0.225000X-0.250000X0.225000X-0.250000X0.225000X0.250000X-0.225000X0.250000X0*%
%ADD16RoundRect,0.250000X0.625000X-0.312500X0.625000X0.312500X-0.625000X0.312500X-0.625000X-0.312500X0*%
%ADD17RoundRect,0.250000X-0.625000X0.312500X-0.625000X-0.312500X0.625000X-0.312500X0.625000X0.312500X0*%
%ADD18RoundRect,0.150000X-0.587500X-0.150000X0.587500X-0.150000X0.587500X0.150000X-0.587500X0.150000X0*%
%ADD19RoundRect,0.225000X0.225000X0.375000X-0.225000X0.375000X-0.225000X-0.375000X0.225000X-0.375000X0*%
%ADD20R,0.900000X1.500000*%
%ADD21R,1.500000X0.900000*%
%ADD22R,0.900000X0.900000*%
%ADD23RoundRect,0.250000X-0.650000X0.325000X-0.650000X-0.325000X0.650000X-0.325000X0.650000X0.325000X0*%
%ADD24RoundRect,0.150000X0.150000X-0.587500X0.150000X0.587500X-0.150000X0.587500X-0.150000X-0.587500X0*%
%ADD25R,1.300000X0.300000*%
%ADD26R,2.200000X1.800000*%
%ADD27RoundRect,0.225000X0.250000X-0.225000X0.250000X0.225000X-0.250000X0.225000X-0.250000X-0.225000X0*%
%ADD28R,1.150000X0.600000*%
%ADD29R,1.150000X0.300000*%
%ADD30RoundRect,0.250000X0.475000X-0.250000X0.475000X0.250000X-0.475000X0.250000X-0.475000X-0.250000X0*%
%ADD31RoundRect,0.150000X-0.512500X-0.150000X0.512500X-0.150000X0.512500X0.150000X-0.512500X0.150000X0*%
%ADD32FreePoly0,0.000000*%
%ADD33FreePoly0,180.000000*%
%ADD34RoundRect,0.112500X0.112500X-0.350000X0.112500X0.350000X-0.112500X0.350000X-0.112500X-0.350000X0*%
%ADD35R,1.400000X0.300000*%
%ADD36R,0.300000X0.700000*%
%ADD37R,2.100000X1.000000*%
%ADD38RoundRect,0.225000X-0.225000X-0.375000X0.225000X-0.375000X0.225000X0.375000X-0.225000X0.375000X0*%
%ADD39RoundRect,0.250000X0.650000X-0.325000X0.650000X0.325000X-0.650000X0.325000X-0.650000X-0.325000X0*%
G04 APERTURE END LIST*
D10*
%TO.C,R2*%
X108274267Y-96566000D03*
X105349267Y-96566000D03*
%TD*%
%TO.C,R22*%
X176792767Y-82088000D03*
X173867767Y-82088000D03*
%TD*%
D11*
%TO.C,C4*%
X109290267Y-89962000D03*
X107390267Y-89962000D03*
%TD*%
D12*
%TO.C,FB1*%
X76778267Y-91232000D03*
X74953267Y-91232000D03*
%TD*%
D13*
%TO.C,R4*%
X186883267Y-84374000D03*
X189808267Y-84374000D03*
%TD*%
%TO.C,R12*%
X171851767Y-99233000D03*
X174776767Y-99233000D03*
%TD*%
D10*
%TO.C,R7*%
X113292767Y-96058000D03*
X110367767Y-96058000D03*
%TD*%
D14*
%TO.C,C8*%
X196322267Y-81700000D03*
X198222267Y-81700000D03*
%TD*%
D15*
%TO.C,C1*%
X111804267Y-94026000D03*
X113354267Y-94026000D03*
%TD*%
D16*
%TO.C,R24*%
X165932267Y-76184500D03*
X165932267Y-73259500D03*
%TD*%
D10*
%TO.C,R6*%
X183773767Y-73452000D03*
X180848767Y-73452000D03*
%TD*%
%TO.C,R25*%
X159012767Y-85390000D03*
X156087767Y-85390000D03*
%TD*%
D13*
%TO.C,R3*%
X100207767Y-96566000D03*
X103132767Y-96566000D03*
%TD*%
D17*
%TO.C,R18*%
X87725017Y-92117000D03*
X87725017Y-95042000D03*
%TD*%
%TO.C,R9*%
X181426267Y-75861000D03*
X181426267Y-78786000D03*
%TD*%
D13*
%TO.C,R15*%
X78363767Y-94545000D03*
X81288767Y-94545000D03*
%TD*%
D17*
%TO.C,R1*%
X187490767Y-74002500D03*
X187490767Y-76927500D03*
%TD*%
D18*
%TO.C,Q1*%
X190030767Y-74515000D03*
X190030767Y-76415000D03*
X191905767Y-75465000D03*
%TD*%
D19*
%TO.C,D3*%
X181949267Y-93518000D03*
X178649267Y-93518000D03*
%TD*%
D16*
%TO.C,R11*%
X118180267Y-87360500D03*
X118180267Y-84435500D03*
%TD*%
D10*
%TO.C,R13*%
X179856767Y-99233000D03*
X176931767Y-99233000D03*
%TD*%
D11*
%TO.C,C20*%
X133608267Y-90978000D03*
X131708267Y-90978000D03*
%TD*%
D13*
%TO.C,R8*%
X181864767Y-82596000D03*
X184789767Y-82596000D03*
%TD*%
D20*
%TO.C,IC2*%
X127070267Y-87930000D03*
X128340267Y-87930000D03*
X129610267Y-87930000D03*
X130880267Y-87930000D03*
X132150267Y-87930000D03*
X133420267Y-87930000D03*
X134690267Y-87930000D03*
X135960267Y-87930000D03*
X137230267Y-87930000D03*
X138500267Y-87930000D03*
X139770267Y-87930000D03*
X141040267Y-87930000D03*
X142310267Y-87930000D03*
X143580267Y-87930000D03*
D21*
X144830267Y-86165000D03*
X144830267Y-84895000D03*
X144830267Y-83625000D03*
X144830267Y-82355000D03*
X144830267Y-81085000D03*
X144830267Y-79815000D03*
X144830267Y-78545000D03*
X144830267Y-77275000D03*
X144830267Y-76005000D03*
X144830267Y-74735000D03*
X144830267Y-73465000D03*
X144830267Y-72195000D03*
D20*
X143580267Y-70430000D03*
X142310267Y-70430000D03*
X141040267Y-70430000D03*
X139770267Y-70430000D03*
X138500267Y-70430000D03*
X137230267Y-70430000D03*
X135960267Y-70430000D03*
X134690267Y-70430000D03*
X133420267Y-70430000D03*
X132150267Y-70430000D03*
X130880267Y-70430000D03*
X129610267Y-70430000D03*
X128340267Y-70430000D03*
X127070267Y-70430000D03*
D22*
X134790267Y-80680000D03*
X133390267Y-80680000D03*
X133390267Y-82080000D03*
X134790267Y-82080000D03*
X136190267Y-82080000D03*
X136190267Y-80680000D03*
X136190267Y-79280000D03*
X134790267Y-79280000D03*
X133390267Y-79280000D03*
%TD*%
D15*
%TO.C,C19*%
X126803267Y-90724000D03*
X128353267Y-90724000D03*
%TD*%
D10*
%TO.C,R23*%
X153932767Y-85390000D03*
X151007767Y-85390000D03*
%TD*%
D19*
%TO.C,D4*%
X181949267Y-96058000D03*
X178649267Y-96058000D03*
%TD*%
D23*
%TO.C,C5*%
X168234267Y-93313000D03*
X168234267Y-96263000D03*
%TD*%
D10*
%TO.C,R5*%
X191493267Y-79275000D03*
X188568267Y-79275000D03*
%TD*%
D24*
%TO.C,D1*%
X99958267Y-94123000D03*
X101858267Y-94123000D03*
X100908267Y-92248000D03*
%TD*%
D16*
%TO.C,R17*%
X84931017Y-95042000D03*
X84931017Y-92117000D03*
%TD*%
D14*
%TO.C,C7*%
X196322267Y-90844000D03*
X198222267Y-90844000D03*
%TD*%
D25*
%TO.C,J1*%
X201143267Y-91073000D03*
X201143267Y-90573000D03*
X201143267Y-90073000D03*
X201143267Y-89573000D03*
X201143267Y-89073000D03*
X201143267Y-88573000D03*
X201143267Y-88073000D03*
X201143267Y-87573000D03*
X201143267Y-87073000D03*
X201143267Y-86573000D03*
X201143267Y-86073000D03*
X201143267Y-85573000D03*
X201143267Y-85073000D03*
X201143267Y-84573000D03*
X201143267Y-84073000D03*
X201143267Y-83573000D03*
X201143267Y-83073000D03*
X201143267Y-82573000D03*
X201143267Y-82073000D03*
X201143267Y-81573000D03*
X201143267Y-81073000D03*
X201143267Y-80573000D03*
X201143267Y-80073000D03*
X201143267Y-79573000D03*
D26*
X204393267Y-92973000D03*
X204393267Y-77673000D03*
%TD*%
D27*
%TO.C,C16*%
X78810267Y-92150000D03*
X78810267Y-90600000D03*
%TD*%
D14*
%TO.C,C18*%
X126816267Y-92502000D03*
X128716267Y-92502000D03*
%TD*%
D16*
%TO.C,R19*%
X90494267Y-95042000D03*
X90494267Y-92117000D03*
%TD*%
D28*
%TO.C,J2*%
X72365267Y-90027000D03*
X72365267Y-90827000D03*
D29*
X72365267Y-91977000D03*
X72365267Y-92977000D03*
X72365267Y-93477000D03*
X72365267Y-94477000D03*
D28*
X72365267Y-96427000D03*
X72365267Y-95627000D03*
D29*
X72365267Y-94977000D03*
X72365267Y-93977000D03*
X72365267Y-92477000D03*
X72365267Y-91477000D03*
%TD*%
D30*
%TO.C,C15*%
X81096267Y-92116000D03*
X81096267Y-90216000D03*
%TD*%
D14*
%TO.C,C10*%
X196322267Y-86272000D03*
X198222267Y-86272000D03*
%TD*%
D17*
%TO.C,R10*%
X115640267Y-84435500D03*
X115640267Y-87360500D03*
%TD*%
D14*
%TO.C,C9*%
X196322267Y-88558000D03*
X198222267Y-88558000D03*
%TD*%
%TO.C,C2*%
X187175767Y-81815000D03*
X189075767Y-81815000D03*
%TD*%
%TO.C,C14*%
X196322267Y-74842000D03*
X198222267Y-74842000D03*
%TD*%
D13*
%TO.C,R16*%
X78363767Y-97074000D03*
X81288767Y-97074000D03*
%TD*%
D31*
%TO.C,U2*%
X78313267Y-99503000D03*
X78313267Y-100453000D03*
X78313267Y-101403000D03*
X80588267Y-101403000D03*
X80588267Y-100453000D03*
X80588267Y-99503000D03*
%TD*%
D18*
%TO.C,Q2*%
X184027767Y-78410000D03*
X184027767Y-80310000D03*
X185902767Y-79360000D03*
%TD*%
D32*
%TO.C,L1*%
X104990267Y-93203000D03*
D33*
X108090267Y-93203000D03*
%TD*%
D14*
%TO.C,C3*%
X103768267Y-89953000D03*
X105668267Y-89953000D03*
%TD*%
D34*
%TO.C,Q3*%
X175204267Y-96945500D03*
X176504267Y-96945500D03*
X175854267Y-95170500D03*
%TD*%
D14*
%TO.C,C13*%
X196322267Y-77128000D03*
X198222267Y-77128000D03*
%TD*%
D35*
%TO.C,IC3*%
X85500267Y-97074000D03*
X85500267Y-97574000D03*
X85500267Y-98074000D03*
X85500267Y-98574000D03*
X85500267Y-99074000D03*
X89900267Y-99074000D03*
X89900267Y-98574000D03*
X89900267Y-98074000D03*
X89900267Y-97574000D03*
X89900267Y-97074000D03*
%TD*%
D36*
%TO.C,IC1*%
X105290267Y-87480000D03*
X105790267Y-87480000D03*
X106290267Y-87480000D03*
X106790267Y-87480000D03*
X107290267Y-87480000D03*
X107790267Y-87480000D03*
X107790267Y-85380000D03*
X107290267Y-85380000D03*
X106790267Y-85380000D03*
X106290267Y-85380000D03*
X105790267Y-85380000D03*
X105290267Y-85380000D03*
D37*
X106540267Y-86430000D03*
%TD*%
D13*
%TO.C,R21*%
X130687767Y-93518000D03*
X133612767Y-93518000D03*
%TD*%
D16*
%TO.C,R20*%
X93173267Y-95042000D03*
X93173267Y-92117000D03*
%TD*%
D14*
%TO.C,C11*%
X196322267Y-83986000D03*
X198222267Y-83986000D03*
%TD*%
%TO.C,C17*%
X94624267Y-97074000D03*
X96524267Y-97074000D03*
%TD*%
D32*
%TO.C,L2*%
X170494267Y-93518000D03*
D33*
X173594267Y-93518000D03*
%TD*%
D38*
%TO.C,D2*%
X178649267Y-90978000D03*
X181949267Y-90978000D03*
%TD*%
D39*
%TO.C,C6*%
X175854267Y-93088000D03*
X175854267Y-90138000D03*
%TD*%
D14*
%TO.C,C12*%
X196322267Y-79414000D03*
X198222267Y-79414000D03*
%TD*%
M02*
