%TF.GenerationSoftware,KiCad,Pcbnew,10.0.3*%
%TF.CreationDate,2026-06-04T20:55:22+02:00*%
%TF.ProjectId,BogenampelV3,426f6765-6e61-46d7-9065-6c56332e6b69,3.0*%
%TF.SameCoordinates,Original*%
%TF.FileFunction,Copper,L2,Bot*%
%TF.FilePolarity,Positive*%
%FSLAX46Y46*%
G04 Gerber Fmt 4.6, Leading zero omitted, Abs format (unit mm)*
G04 Created by KiCad (PCBNEW 10.0.3) date 2026-06-04 20:55:22*
%MOMM*%
%LPD*%
G01*
G04 APERTURE LIST*
%TA.AperFunction,ComponentPad*%
%ADD10R,1.700000X1.700000*%
%TD*%
%TA.AperFunction,ComponentPad*%
%ADD11C,1.700000*%
%TD*%
%TA.AperFunction,ComponentPad*%
%ADD12O,3.000000X2.500000*%
%TD*%
%TA.AperFunction,ComponentPad*%
%ADD13C,2.000000*%
%TD*%
%TA.AperFunction,ComponentPad*%
%ADD14C,2.280000*%
%TD*%
%TA.AperFunction,ComponentPad*%
%ADD15C,2.850000*%
%TD*%
%TA.AperFunction,ViaPad*%
%ADD16C,0.600000*%
%TD*%
%TA.AperFunction,Conductor*%
%ADD17C,0.200000*%
%TD*%
%TA.AperFunction,Conductor*%
%ADD18C,0.508000*%
%TD*%
%TA.AperFunction,Conductor*%
%ADD19C,0.635000*%
%TD*%
%TA.AperFunction,Conductor*%
%ADD20C,0.300000*%
%TD*%
G04 APERTURE END LIST*
D10*
%TO.P,J3,1,Pin_1_1*%
%TO.N,GND*%
X97347267Y-86406000D03*
D11*
%TO.P,J3,2,Pin_2_2*%
%TO.N,Net-(IC3-THERM)*%
X99887267Y-86406000D03*
%TD*%
D10*
%TO.P,J4,1,Pin_1_1*%
%TO.N,GND*%
X86684267Y-86406000D03*
D11*
%TO.P,J4,2,Pin_2_2*%
%TO.N,+BATT*%
X89224267Y-86406000D03*
%TD*%
D12*
%TO.P,SW2,1,1_1*%
%TO.N,Net-(R2-Pad2)*%
X149504267Y-74348000D03*
X162004267Y-74348000D03*
%TO.P,SW2,2,2_2*%
%TO.N,+BATT*%
X149504267Y-79348000D03*
X162004267Y-79348000D03*
%TD*%
D13*
%TO.P,SW3,1,1_1*%
%TO.N,GND*%
X116252267Y-92248000D03*
X122752267Y-92248000D03*
%TO.P,SW3,2,2_2*%
%TO.N,Net-(IC2-EN)*%
X116252267Y-96748000D03*
X122752267Y-96748000D03*
%TD*%
%TO.P,SW4,1,1_1*%
%TO.N,GND*%
X176092267Y-78968000D03*
X169592267Y-78968000D03*
%TO.P,SW4,2,2_2*%
%TO.N,Net-(IC2-IO0)*%
X176092267Y-74468000D03*
X169592267Y-74468000D03*
%TD*%
D14*
%TO.P,J2,MH1,MH_1_MH1*%
%TO.N,GND*%
X71190267Y-87602000D03*
%TO.P,J2,MH2,MH_2_MH2*%
X71190267Y-98852000D03*
D15*
%TO.P,J2,MH3,MH_3_MH3*%
X67190267Y-87602000D03*
%TO.P,J2,MH4,MH_4_MH4*%
X67190267Y-98852000D03*
%TD*%
D12*
%TO.P,SW1,1,1_1*%
%TO.N,GND*%
X162004267Y-96348000D03*
X149504267Y-96348000D03*
%TO.P,SW1,2,2_2*%
%TO.N,/BTN2*%
X162004267Y-91348000D03*
X149504267Y-91348000D03*
%TD*%
D16*
%TO.N,Net-(R2-Pad2)*%
X141548267Y-99868000D03*
X144850267Y-96312000D03*
X108020267Y-98344000D03*
%TO.N,/VGL*%
X203016267Y-80056000D03*
X192999267Y-90978000D03*
%TO.N,+3V3_LOAD*%
X165678267Y-93518000D03*
X123514267Y-87676000D03*
%TO.N,+3V3*%
X178886267Y-84120000D03*
X130880267Y-95550000D03*
X153740267Y-87676000D03*
%TO.N,Net-(IC2-IO0)*%
X145612267Y-69134000D03*
%TO.N,GND*%
X82366267Y-97074000D03*
X125292267Y-85136000D03*
X205810267Y-82088000D03*
X131896267Y-96312000D03*
X103448267Y-91994000D03*
X184439517Y-85170750D03*
X76016267Y-99868000D03*
X124784267Y-88184000D03*
X69920267Y-93264000D03*
X157226000Y-81026000D03*
X125568267Y-102408000D03*
X153670000Y-81026000D03*
X67888267Y-93264000D03*
X186014267Y-93518000D03*
X172044267Y-90343000D03*
X186141267Y-99233000D03*
X160598267Y-85390000D03*
X186014267Y-89517500D03*
X205913267Y-87573000D03*
X181569267Y-102408000D03*
X104394000Y-86430000D03*
X150876000Y-81026000D03*
X181569267Y-99233000D03*
X172044267Y-96693000D03*
X114116267Y-92248000D03*
X114116267Y-87360500D03*
X108712000Y-86430000D03*
%TO.N,VCC*%
X83407017Y-97582000D03*
X83407017Y-92116000D03*
X82797267Y-100453000D03*
%TO.N,+BATT*%
X102746267Y-89962000D03*
X113100267Y-91232000D03*
X108782267Y-84628000D03*
X128594267Y-95296000D03*
X94812267Y-89962000D03*
%TO.N,/VGH*%
X203015267Y-81073000D03*
X193110267Y-96058000D03*
%TO.N,Net-(IC2-IO45)*%
X167710267Y-69388000D03*
X167710267Y-73198000D03*
%TO.N,/LOAD*%
X119704267Y-85390000D03*
X107064267Y-88692000D03*
X113354267Y-85390000D03*
X119704267Y-97328000D03*
%TO.N,/RESE*%
X200476267Y-99614000D03*
X203270267Y-99614000D03*
%TO.N,/ADC_BAT*%
X179140267Y-85678000D03*
X176600267Y-85644000D03*
%TO.N,/C_ST1*%
X151708267Y-77262000D03*
X141297059Y-95042000D03*
%TO.N,/C_ST2*%
X152851267Y-76627000D03*
X141294267Y-96312000D03*
%TO.N,Net-(IC1-EN)*%
X98622267Y-91486000D03*
X113354267Y-84435500D03*
%TO.N,Net-(J2-CC2)*%
X73476267Y-95042000D03*
X76270267Y-96312000D03*
%TD*%
%TO.N,Net-(R2-Pad2)*%
D17*
X162004267Y-74348000D02*
X149504267Y-74348000D01*
X108020267Y-98344000D02*
X109036267Y-99360000D01*
X144850267Y-91994000D02*
X154686000Y-82158267D01*
X141040267Y-99360000D02*
X141548267Y-99868000D01*
X154686000Y-77191733D02*
X151842267Y-74348000D01*
X109036267Y-99360000D02*
X141040267Y-99360000D01*
X144850267Y-96312000D02*
X144850267Y-91994000D01*
X151842267Y-74348000D02*
X149504267Y-74348000D01*
X154686000Y-82158267D02*
X154686000Y-77191733D01*
%TO.N,/VGL*%
D18*
X202000267Y-80564000D02*
X202000267Y-86152000D01*
X203016267Y-80056000D02*
X202508267Y-80056000D01*
X197174267Y-90978000D02*
X192999267Y-90978000D01*
X202508267Y-80056000D02*
X202000267Y-80564000D01*
X202000267Y-86152000D02*
X197174267Y-90978000D01*
%TO.N,+3V3_LOAD*%
X127254000Y-98806000D02*
X164200267Y-98806000D01*
X123514267Y-87676000D02*
X121298267Y-89892000D01*
X121298267Y-89892000D02*
X121298267Y-92850267D01*
X165678267Y-97328000D02*
X165678267Y-93518000D01*
X164200267Y-98806000D02*
X165678267Y-97328000D01*
X121298267Y-92850267D02*
X127254000Y-98806000D01*
%TO.N,+3V3*%
X130880267Y-95550000D02*
X132404267Y-95550000D01*
D17*
X172790267Y-87676000D02*
X153740267Y-87676000D01*
D18*
X152216267Y-98090000D02*
X153740267Y-96566000D01*
X132404267Y-95550000D02*
X134944267Y-98090000D01*
X134944267Y-98090000D02*
X152216267Y-98090000D01*
D17*
X178886267Y-84120000D02*
X176346267Y-84120000D01*
D18*
X153740267Y-96566000D02*
X153740267Y-87676000D01*
D17*
X176346267Y-84120000D02*
X172790267Y-87676000D01*
%TO.N,Net-(IC2-IO0)*%
X169592267Y-74468000D02*
X169592267Y-69492000D01*
X146120267Y-68626000D02*
X145612267Y-69134000D01*
X169592267Y-69492000D02*
X168726267Y-68626000D01*
X168726267Y-68626000D02*
X146120267Y-68626000D01*
%TO.N,GND*%
D18*
X114146767Y-92217500D02*
X114116267Y-92248000D01*
D19*
X181569267Y-99233000D02*
X181569267Y-102408000D01*
D18*
X82366267Y-97582000D02*
X80080267Y-99868000D01*
D19*
X186014267Y-89517500D02*
X186014267Y-93518000D01*
D18*
X114146767Y-87391000D02*
X114146767Y-92217500D01*
X82366267Y-97074000D02*
X82366267Y-97582000D01*
D20*
X205913267Y-87573000D02*
X205810267Y-87470000D01*
D18*
X80080267Y-99868000D02*
X76016267Y-99868000D01*
D17*
X122752267Y-92248000D02*
X124784267Y-90216000D01*
X169592267Y-78968000D02*
X176092267Y-78968000D01*
D19*
X180338267Y-78968000D02*
X176092267Y-78968000D01*
X186014267Y-89517500D02*
X186014267Y-86745500D01*
X186014267Y-86745500D02*
X184439517Y-85170750D01*
D17*
X131896267Y-96312000D02*
X126816267Y-96312000D01*
D20*
X205810267Y-87470000D02*
X205810267Y-82088000D01*
D17*
X126816267Y-96312000D02*
X122752267Y-92248000D01*
D19*
X184439517Y-85170750D02*
X184439517Y-83069250D01*
D18*
X114116267Y-87360500D02*
X114146767Y-87391000D01*
D19*
X184439517Y-83069250D02*
X180338267Y-78968000D01*
X186014267Y-93518000D02*
X186014267Y-99106000D01*
D17*
X124784267Y-90216000D02*
X124784267Y-88184000D01*
D19*
X186014267Y-99106000D02*
X186141267Y-99233000D01*
D18*
X71190267Y-98852000D02*
X75000267Y-98852000D01*
X67888267Y-93264000D02*
X69920267Y-93264000D01*
D19*
X172044267Y-96693000D02*
X172044267Y-90343000D01*
D18*
X75000267Y-98852000D02*
X76016267Y-99868000D01*
%TO.N,VCC*%
X83407017Y-97582000D02*
X83407017Y-92116000D01*
X83407017Y-99843250D02*
X83407017Y-97582000D01*
X82797267Y-100453000D02*
X83407017Y-99843250D01*
%TO.N,+BATT*%
D17*
X102746267Y-89962000D02*
X102746267Y-85838000D01*
D18*
X103702267Y-96820000D02*
X102178267Y-95296000D01*
X113100267Y-95804000D02*
X112084267Y-96820000D01*
D17*
X103956267Y-84628000D02*
X108782267Y-84628000D01*
D18*
X102178267Y-92756000D02*
X99384267Y-89962000D01*
X113100267Y-91232000D02*
X113100267Y-95804000D01*
D17*
X144342267Y-89454000D02*
X149504267Y-84292000D01*
X134436267Y-89454000D02*
X144342267Y-89454000D01*
D18*
X94812267Y-89962000D02*
X99384267Y-89962000D01*
X99384267Y-89962000D02*
X102746267Y-89962000D01*
D17*
X149504267Y-84292000D02*
X149504267Y-79348000D01*
X128594267Y-95296000D02*
X134436267Y-89454000D01*
D18*
X102178267Y-95296000D02*
X102178267Y-92756000D01*
X112084267Y-96820000D02*
X103702267Y-96820000D01*
D17*
X102746267Y-85838000D02*
X103956267Y-84628000D01*
%TO.N,/VGH*%
D18*
X203015267Y-86407000D02*
X193364267Y-96058000D01*
X203015267Y-81073000D02*
X203015267Y-86407000D01*
D20*
X193364267Y-96058000D02*
X193110267Y-96058000D01*
%TO.N,Net-(IC2-IO45)*%
D17*
X167710267Y-73198000D02*
X167710267Y-69388000D01*
%TO.N,/LOAD*%
X119704267Y-85390000D02*
X119704267Y-97328000D01*
X112084267Y-88692000D02*
X113354267Y-87422000D01*
X113354267Y-87422000D02*
X113354267Y-85390000D01*
X107064267Y-88692000D02*
X112084267Y-88692000D01*
%TO.N,/RESE*%
X200476267Y-99614000D02*
X203270267Y-99614000D01*
%TO.N,/ADC_BAT*%
X179140267Y-85678000D02*
X176634267Y-85678000D01*
X176634267Y-85678000D02*
X176600267Y-85644000D01*
%TO.N,/C_ST1*%
X141297059Y-95042000D02*
X141297059Y-93515208D01*
X141297059Y-93515208D02*
X151708267Y-83104000D01*
X151708267Y-83104000D02*
X151708267Y-77262000D01*
%TO.N,/C_ST2*%
X142310267Y-93518000D02*
X152978267Y-82850000D01*
X142310267Y-95296000D02*
X142310267Y-93518000D01*
X152978267Y-76754000D02*
X152978267Y-82850000D01*
X141294267Y-96312000D02*
X142310267Y-95296000D01*
X152851267Y-76627000D02*
X152978267Y-76754000D01*
%TO.N,Net-(IC1-EN)*%
X114878267Y-96312000D02*
X114878267Y-85390000D01*
X98622267Y-91486000D02*
X98622267Y-96820000D01*
X99384267Y-97582000D02*
X113608267Y-97582000D01*
X114878267Y-85390000D02*
X113923767Y-84435500D01*
X98622267Y-96820000D02*
X99384267Y-97582000D01*
X113608267Y-97582000D02*
X114878267Y-96312000D01*
X113923767Y-84435500D02*
X113354267Y-84435500D01*
%TO.N,Net-(J2-CC2)*%
X74746267Y-96312000D02*
X76270267Y-96312000D01*
X73476267Y-95042000D02*
X74746267Y-96312000D01*
%TD*%
%TA.AperFunction,Conductor*%
%TO.N,GND*%
G36*
X151338479Y-79624597D02*
G01*
X151389955Y-79671841D01*
X151407767Y-79735874D01*
X151407767Y-82928167D01*
X151388082Y-82995206D01*
X151371448Y-83015848D01*
X150016448Y-84370848D01*
X149955125Y-84404333D01*
X149885433Y-84399349D01*
X149829500Y-84357477D01*
X149805083Y-84292013D01*
X149804767Y-84283167D01*
X149804767Y-80914488D01*
X149824452Y-80847449D01*
X149877256Y-80801694D01*
X149909369Y-80792015D01*
X149913109Y-80791422D01*
X150093927Y-80762784D01*
X150311066Y-80692231D01*
X150514495Y-80588579D01*
X150699204Y-80454379D01*
X150860646Y-80292937D01*
X150994846Y-80108228D01*
X151098498Y-79904799D01*
X151165836Y-79697555D01*
X151205274Y-79639880D01*
X151269633Y-79612682D01*
X151338479Y-79624597D01*
G37*
%TD.AperFunction*%
%TA.AperFunction,Conductor*%
G36*
X153556970Y-76488120D02*
G01*
X153563448Y-76494152D01*
X154349181Y-77279885D01*
X154382666Y-77341208D01*
X154385500Y-77367566D01*
X154385500Y-81982434D01*
X154365815Y-82049473D01*
X154349181Y-82070115D01*
X153490448Y-82928848D01*
X153429125Y-82962333D01*
X153359433Y-82957349D01*
X153303500Y-82915477D01*
X153279083Y-82850013D01*
X153278767Y-82841167D01*
X153278767Y-76920774D01*
X153295381Y-76858773D01*
X153317656Y-76820191D01*
X153317655Y-76820191D01*
X153317659Y-76820186D01*
X153351767Y-76692892D01*
X153351767Y-76581833D01*
X153371452Y-76514794D01*
X153424256Y-76469039D01*
X153493414Y-76459095D01*
X153556970Y-76488120D01*
G37*
%TD.AperFunction*%
%TA.AperFunction,Conductor*%
G36*
X212196806Y-67618185D02*
G01*
X212242561Y-67670989D01*
X212253767Y-67722500D01*
X212253767Y-102973500D01*
X212234082Y-103040539D01*
X212181278Y-103086294D01*
X212129767Y-103097500D01*
X65878767Y-103097500D01*
X65811728Y-103077815D01*
X65765973Y-103025011D01*
X65754767Y-102973500D01*
X65754767Y-100428358D01*
X65774452Y-100361319D01*
X65827256Y-100315564D01*
X65896414Y-100305620D01*
X65954253Y-100329982D01*
X66118500Y-100456013D01*
X66337031Y-100582182D01*
X66337046Y-100582189D01*
X66570169Y-100678751D01*
X66813913Y-100744061D01*
X67064088Y-100776999D01*
X67064103Y-100777000D01*
X67316431Y-100777000D01*
X67316445Y-100776999D01*
X67566620Y-100744061D01*
X67810364Y-100678751D01*
X68043487Y-100582189D01*
X68043501Y-100582182D01*
X68262034Y-100456012D01*
X68363142Y-100378428D01*
X67663239Y-99678525D01*
X67795857Y-99589913D01*
X67928180Y-99457590D01*
X68016792Y-99324972D01*
X68716695Y-100024875D01*
X68794279Y-99923767D01*
X68920449Y-99705234D01*
X68920456Y-99705220D01*
X69017018Y-99472097D01*
X69082328Y-99228353D01*
X69115266Y-98978178D01*
X69115267Y-98978164D01*
X69115267Y-98725828D01*
X69114885Y-98722923D01*
X69550267Y-98722923D01*
X69550267Y-98981076D01*
X69590648Y-99236030D01*
X69670421Y-99481543D01*
X69787613Y-99711547D01*
X69867378Y-99821333D01*
X69867378Y-99821334D01*
X70505034Y-99183677D01*
X70516764Y-99211995D01*
X70599937Y-99336472D01*
X70705795Y-99442330D01*
X70830272Y-99525503D01*
X70858588Y-99537231D01*
X70220931Y-100174887D01*
X70330719Y-100254653D01*
X70560723Y-100371845D01*
X70806236Y-100451618D01*
X71061191Y-100492000D01*
X71319343Y-100492000D01*
X71574297Y-100451618D01*
X71772836Y-100387108D01*
X82296767Y-100387108D01*
X82296767Y-100518891D01*
X82330875Y-100646187D01*
X82330876Y-100646188D01*
X82396767Y-100760314D01*
X82489953Y-100853500D01*
X82604081Y-100919392D01*
X82731375Y-100953500D01*
X82731377Y-100953500D01*
X82863157Y-100953500D01*
X82863159Y-100953500D01*
X82990453Y-100919392D01*
X83104581Y-100853500D01*
X83197767Y-100760314D01*
X83263659Y-100646186D01*
X83263661Y-100646177D01*
X83266109Y-100640269D01*
X83292989Y-100600036D01*
X83675877Y-100217149D01*
X83675882Y-100217145D01*
X83686085Y-100206941D01*
X83686087Y-100206941D01*
X83770708Y-100122320D01*
X83830544Y-100018681D01*
X83848277Y-99952500D01*
X83861518Y-99903086D01*
X83861518Y-99783414D01*
X83861517Y-99783410D01*
X83861517Y-97828559D01*
X83870958Y-97781102D01*
X83873405Y-97775192D01*
X83873409Y-97775186D01*
X83907517Y-97647892D01*
X83907517Y-97516108D01*
X83873409Y-97388814D01*
X83873406Y-97388810D01*
X83870955Y-97382890D01*
X83861517Y-97335439D01*
X83861517Y-92362559D01*
X83870958Y-92315102D01*
X83873405Y-92309192D01*
X83873409Y-92309186D01*
X83907517Y-92181892D01*
X83907517Y-92050108D01*
X83873409Y-91922814D01*
X83807517Y-91808686D01*
X83714331Y-91715500D01*
X83651435Y-91679187D01*
X83600204Y-91649608D01*
X83536556Y-91632554D01*
X83472909Y-91615500D01*
X83341125Y-91615500D01*
X83213829Y-91649608D01*
X83099703Y-91715500D01*
X83099700Y-91715502D01*
X83006519Y-91808683D01*
X83006517Y-91808686D01*
X82940625Y-91922812D01*
X82906517Y-92050108D01*
X82906517Y-92181891D01*
X82940625Y-92309186D01*
X82943076Y-92315102D01*
X82952517Y-92362559D01*
X82952517Y-97335439D01*
X82943079Y-97382890D01*
X82940625Y-97388813D01*
X82906517Y-97516108D01*
X82906517Y-97647891D01*
X82940625Y-97775186D01*
X82943076Y-97781102D01*
X82952517Y-97828559D01*
X82952517Y-99603627D01*
X82932832Y-99670666D01*
X82916198Y-99691308D01*
X82650231Y-99957274D01*
X82610008Y-99984152D01*
X82604085Y-99986605D01*
X82489953Y-100052500D01*
X82489950Y-100052502D01*
X82396769Y-100145683D01*
X82396767Y-100145686D01*
X82330875Y-100259812D01*
X82296767Y-100387108D01*
X71772836Y-100387108D01*
X71819810Y-100371845D01*
X72022647Y-100268496D01*
X72022648Y-100268495D01*
X72049812Y-100254655D01*
X72159600Y-100174887D01*
X72159601Y-100174887D01*
X71521945Y-99537232D01*
X71550262Y-99525503D01*
X71674739Y-99442330D01*
X71780597Y-99336472D01*
X71863770Y-99211995D01*
X71875499Y-99183678D01*
X72513154Y-99821334D01*
X72513154Y-99821333D01*
X72592920Y-99711547D01*
X72710112Y-99481543D01*
X72789885Y-99236030D01*
X72830267Y-98981076D01*
X72830267Y-98722923D01*
X72789885Y-98467969D01*
X72710112Y-98222456D01*
X72592920Y-97992452D01*
X72513154Y-97882665D01*
X72513154Y-97882664D01*
X71875498Y-98520320D01*
X71863770Y-98492005D01*
X71780597Y-98367528D01*
X71674739Y-98261670D01*
X71550262Y-98178497D01*
X71521945Y-98166767D01*
X72159601Y-97529111D01*
X72049814Y-97449346D01*
X71819810Y-97332154D01*
X71574297Y-97252381D01*
X71319343Y-97212000D01*
X71061191Y-97212000D01*
X70806236Y-97252381D01*
X70560723Y-97332154D01*
X70330721Y-97449345D01*
X70220931Y-97529111D01*
X70858588Y-98166767D01*
X70830272Y-98178497D01*
X70705795Y-98261670D01*
X70599937Y-98367528D01*
X70516764Y-98492005D01*
X70505035Y-98520321D01*
X69867378Y-97882664D01*
X69787612Y-97992454D01*
X69670421Y-98222456D01*
X69590648Y-98467969D01*
X69550267Y-98722923D01*
X69114885Y-98722923D01*
X69082328Y-98475646D01*
X69017018Y-98231902D01*
X68920456Y-97998779D01*
X68920449Y-97998764D01*
X68794280Y-97780233D01*
X68716697Y-97679123D01*
X68716695Y-97679123D01*
X68016791Y-98379026D01*
X67928180Y-98246410D01*
X67795857Y-98114087D01*
X67663238Y-98025474D01*
X68363142Y-97325570D01*
X68363142Y-97325569D01*
X68262033Y-97247986D01*
X68043502Y-97121817D01*
X68043487Y-97121810D01*
X67810364Y-97025248D01*
X67566620Y-96959938D01*
X67316445Y-96927000D01*
X67064088Y-96927000D01*
X66813913Y-96959938D01*
X66570169Y-97025248D01*
X66337046Y-97121810D01*
X66337031Y-97121817D01*
X66118500Y-97247986D01*
X65954253Y-97374017D01*
X65889084Y-97399211D01*
X65820639Y-97385172D01*
X65770649Y-97336358D01*
X65754767Y-97275641D01*
X65754767Y-94976108D01*
X72975767Y-94976108D01*
X72975767Y-95107892D01*
X72980746Y-95126473D01*
X73009875Y-95235187D01*
X73034594Y-95278001D01*
X73075767Y-95349314D01*
X73168953Y-95442500D01*
X73283081Y-95508392D01*
X73410375Y-95542500D01*
X73410377Y-95542500D01*
X73500434Y-95542500D01*
X73567473Y-95562185D01*
X73588115Y-95578819D01*
X74505807Y-96496511D01*
X74561756Y-96552460D01*
X74561758Y-96552461D01*
X74561762Y-96552464D01*
X74630271Y-96592017D01*
X74630278Y-96592021D01*
X74706705Y-96612500D01*
X74785829Y-96612500D01*
X75811591Y-96612500D01*
X75878630Y-96632185D01*
X75899272Y-96648819D01*
X75962953Y-96712500D01*
X76077081Y-96778392D01*
X76204375Y-96812500D01*
X76204377Y-96812500D01*
X76336157Y-96812500D01*
X76336159Y-96812500D01*
X76463453Y-96778392D01*
X76577581Y-96712500D01*
X76670767Y-96619314D01*
X76736659Y-96505186D01*
X76770767Y-96377892D01*
X76770767Y-96246108D01*
X76736659Y-96118814D01*
X76736651Y-96118801D01*
X76716020Y-96083066D01*
X76670767Y-96004686D01*
X76577581Y-95911500D01*
X76496719Y-95864814D01*
X76463454Y-95845608D01*
X76399806Y-95828554D01*
X76336159Y-95811500D01*
X76204375Y-95811500D01*
X76077079Y-95845608D01*
X75962953Y-95911500D01*
X75962950Y-95911502D01*
X75899272Y-95975181D01*
X75837949Y-96008666D01*
X75811591Y-96011500D01*
X74922100Y-96011500D01*
X74855061Y-95991815D01*
X74834419Y-95975181D01*
X74013086Y-95153848D01*
X73979601Y-95092525D01*
X73976767Y-95066167D01*
X73976767Y-94976110D01*
X73976767Y-94976108D01*
X73942659Y-94848814D01*
X73876767Y-94734686D01*
X73783581Y-94641500D01*
X73708237Y-94598000D01*
X73669454Y-94575608D01*
X73605806Y-94558554D01*
X73542159Y-94541500D01*
X73410375Y-94541500D01*
X73283079Y-94575608D01*
X73168953Y-94641500D01*
X73168950Y-94641502D01*
X73075769Y-94734683D01*
X73075767Y-94734686D01*
X73009875Y-94848812D01*
X72997365Y-94895502D01*
X72975767Y-94976108D01*
X65754767Y-94976108D01*
X65754767Y-89896108D01*
X94311767Y-89896108D01*
X94311767Y-90027891D01*
X94345875Y-90155187D01*
X94378821Y-90212250D01*
X94411767Y-90269314D01*
X94504953Y-90362500D01*
X94619081Y-90428392D01*
X94746375Y-90462500D01*
X94746377Y-90462500D01*
X94878157Y-90462500D01*
X94878159Y-90462500D01*
X95005453Y-90428392D01*
X95005463Y-90428386D01*
X95011373Y-90425939D01*
X95058827Y-90416500D01*
X99144645Y-90416500D01*
X99211684Y-90436185D01*
X99232326Y-90452819D01*
X101687448Y-92907941D01*
X101720933Y-92969264D01*
X101723767Y-92995622D01*
X101723767Y-95236160D01*
X101723766Y-95236164D01*
X101723766Y-95355836D01*
X101739675Y-95415207D01*
X101754740Y-95471431D01*
X101814576Y-95575070D01*
X101814578Y-95575072D01*
X101906262Y-95666756D01*
X101906268Y-95666761D01*
X103309326Y-97069819D01*
X103342811Y-97131142D01*
X103337827Y-97200834D01*
X103295955Y-97256767D01*
X103230491Y-97281184D01*
X103221645Y-97281500D01*
X99560100Y-97281500D01*
X99493061Y-97261815D01*
X99472419Y-97245181D01*
X98959086Y-96731848D01*
X98925601Y-96670525D01*
X98922767Y-96644167D01*
X98922767Y-91944676D01*
X98942452Y-91877637D01*
X98959086Y-91856995D01*
X99022767Y-91793314D01*
X99088659Y-91679186D01*
X99122767Y-91551892D01*
X99122767Y-91420108D01*
X99088659Y-91292814D01*
X99022767Y-91178686D01*
X98929581Y-91085500D01*
X98857514Y-91043892D01*
X98815454Y-91019608D01*
X98744181Y-91000511D01*
X98688159Y-90985500D01*
X98556375Y-90985500D01*
X98429079Y-91019608D01*
X98314953Y-91085500D01*
X98314950Y-91085502D01*
X98221769Y-91178683D01*
X98221767Y-91178686D01*
X98155875Y-91292812D01*
X98121767Y-91420108D01*
X98121767Y-91551891D01*
X98155875Y-91679187D01*
X98160767Y-91687660D01*
X98221767Y-91793314D01*
X98221769Y-91793316D01*
X98285448Y-91856995D01*
X98318933Y-91918318D01*
X98321767Y-91944676D01*
X98321767Y-96859562D01*
X98324383Y-96869323D01*
X98342246Y-96935990D01*
X98354379Y-96957004D01*
X98368520Y-96981497D01*
X98381807Y-97004511D01*
X99199756Y-97822460D01*
X99259096Y-97856720D01*
X99268275Y-97862020D01*
X99268279Y-97862022D01*
X99344705Y-97882500D01*
X99423829Y-97882500D01*
X107494012Y-97882500D01*
X107561051Y-97902185D01*
X107606806Y-97954989D01*
X107616750Y-98024147D01*
X107601399Y-98068501D01*
X107553875Y-98150812D01*
X107521716Y-98270834D01*
X107519767Y-98278108D01*
X107519767Y-98409892D01*
X107532081Y-98455848D01*
X107553875Y-98537187D01*
X107567951Y-98561566D01*
X107619767Y-98651314D01*
X107712953Y-98744500D01*
X107827081Y-98810392D01*
X107954375Y-98844500D01*
X107954377Y-98844500D01*
X108044434Y-98844500D01*
X108111473Y-98864185D01*
X108132115Y-98880819D01*
X108795807Y-99544511D01*
X108851756Y-99600460D01*
X108851758Y-99600461D01*
X108851762Y-99600464D01*
X108920271Y-99640017D01*
X108920278Y-99640021D01*
X108996705Y-99660500D01*
X140864434Y-99660500D01*
X140893874Y-99669144D01*
X140923861Y-99675668D01*
X140928876Y-99679422D01*
X140931473Y-99680185D01*
X140952115Y-99696819D01*
X141011448Y-99756152D01*
X141044933Y-99817475D01*
X141047767Y-99843833D01*
X141047767Y-99933891D01*
X141081875Y-100061187D01*
X141112655Y-100114499D01*
X141147767Y-100175314D01*
X141240953Y-100268500D01*
X141355081Y-100334392D01*
X141482375Y-100368500D01*
X141482377Y-100368500D01*
X141614157Y-100368500D01*
X141614159Y-100368500D01*
X141741453Y-100334392D01*
X141855581Y-100268500D01*
X141948767Y-100175314D01*
X142014659Y-100061186D01*
X142048767Y-99933892D01*
X142048767Y-99802108D01*
X142014659Y-99674814D01*
X142011385Y-99669144D01*
X141978219Y-99611698D01*
X141978218Y-99611697D01*
X141948767Y-99560686D01*
X141936189Y-99548108D01*
X199975767Y-99548108D01*
X199975767Y-99679891D01*
X200009875Y-99807187D01*
X200018043Y-99821334D01*
X200075767Y-99921314D01*
X200168953Y-100014500D01*
X200283081Y-100080392D01*
X200410375Y-100114500D01*
X200410377Y-100114500D01*
X200542157Y-100114500D01*
X200542159Y-100114500D01*
X200669453Y-100080392D01*
X200783581Y-100014500D01*
X200847262Y-99950819D01*
X200908585Y-99917334D01*
X200934943Y-99914500D01*
X202811591Y-99914500D01*
X202878630Y-99934185D01*
X202899272Y-99950819D01*
X202962953Y-100014500D01*
X203077081Y-100080392D01*
X203204375Y-100114500D01*
X203204377Y-100114500D01*
X203336157Y-100114500D01*
X203336159Y-100114500D01*
X203463453Y-100080392D01*
X203577581Y-100014500D01*
X203670767Y-99921314D01*
X203736659Y-99807186D01*
X203770767Y-99679892D01*
X203770767Y-99548108D01*
X203736659Y-99420814D01*
X203670767Y-99306686D01*
X203593983Y-99229902D01*
X207003767Y-99229902D01*
X207003767Y-99466097D01*
X207040713Y-99699368D01*
X207113700Y-99923996D01*
X207210767Y-100114499D01*
X207220924Y-100134433D01*
X207359750Y-100325510D01*
X207526757Y-100492517D01*
X207717834Y-100631343D01*
X207817258Y-100682002D01*
X207928270Y-100738566D01*
X207928272Y-100738566D01*
X207928275Y-100738568D01*
X208046553Y-100776999D01*
X208152898Y-100811553D01*
X208386170Y-100848500D01*
X208386175Y-100848500D01*
X208622364Y-100848500D01*
X208855635Y-100811553D01*
X209080259Y-100738568D01*
X209290700Y-100631343D01*
X209481777Y-100492517D01*
X209648784Y-100325510D01*
X209787610Y-100134433D01*
X209894835Y-99923992D01*
X209967820Y-99699368D01*
X209981658Y-99612000D01*
X210004767Y-99466097D01*
X210004767Y-99229902D01*
X209967820Y-98996631D01*
X209920826Y-98851999D01*
X209894835Y-98772008D01*
X209894833Y-98772005D01*
X209894833Y-98772003D01*
X209787609Y-98561566D01*
X209648784Y-98370490D01*
X209481777Y-98203483D01*
X209290700Y-98064657D01*
X209211195Y-98024147D01*
X209080263Y-97957433D01*
X208855635Y-97884446D01*
X208622364Y-97847500D01*
X208622359Y-97847500D01*
X208386175Y-97847500D01*
X208386170Y-97847500D01*
X208152898Y-97884446D01*
X207928270Y-97957433D01*
X207717833Y-98064657D01*
X207640000Y-98121207D01*
X207526757Y-98203483D01*
X207526755Y-98203485D01*
X207526754Y-98203485D01*
X207359752Y-98370487D01*
X207359752Y-98370488D01*
X207359750Y-98370490D01*
X207331123Y-98409892D01*
X207220924Y-98561566D01*
X207113700Y-98772003D01*
X207040713Y-98996631D01*
X207003767Y-99229902D01*
X203593983Y-99229902D01*
X203577581Y-99213500D01*
X203501697Y-99169688D01*
X203463454Y-99147608D01*
X203394398Y-99129105D01*
X203336159Y-99113500D01*
X203204375Y-99113500D01*
X203077079Y-99147608D01*
X202962953Y-99213500D01*
X202962950Y-99213502D01*
X202899272Y-99277181D01*
X202837949Y-99310666D01*
X202811591Y-99313500D01*
X200934943Y-99313500D01*
X200867904Y-99293815D01*
X200847262Y-99277181D01*
X200783583Y-99213502D01*
X200783581Y-99213500D01*
X200707697Y-99169688D01*
X200669454Y-99147608D01*
X200600398Y-99129105D01*
X200542159Y-99113500D01*
X200410375Y-99113500D01*
X200283079Y-99147608D01*
X200168953Y-99213500D01*
X200168950Y-99213502D01*
X200075769Y-99306683D01*
X200075767Y-99306686D01*
X200009875Y-99420812D01*
X199975767Y-99548108D01*
X141936189Y-99548108D01*
X141856694Y-99468613D01*
X141853431Y-99464771D01*
X141841198Y-99437269D01*
X141826777Y-99410858D01*
X141827147Y-99405678D01*
X141825036Y-99400931D01*
X141829614Y-99371182D01*
X141831761Y-99341166D01*
X141834873Y-99337007D01*
X141835664Y-99331874D01*
X141855599Y-99309321D01*
X141873633Y-99285233D01*
X141878498Y-99283418D01*
X141881939Y-99279526D01*
X141910901Y-99271332D01*
X141939097Y-99260816D01*
X141947943Y-99260500D01*
X164132819Y-99260500D01*
X164132835Y-99260501D01*
X164140431Y-99260501D01*
X164260102Y-99260501D01*
X164260103Y-99260501D01*
X164351265Y-99236073D01*
X164351268Y-99236073D01*
X164365372Y-99232293D01*
X164375698Y-99229527D01*
X164479337Y-99169691D01*
X164563958Y-99085070D01*
X164563958Y-99085068D01*
X164574162Y-99074865D01*
X164574166Y-99074860D01*
X165947127Y-97701899D01*
X165947132Y-97701895D01*
X165957335Y-97691691D01*
X165957337Y-97691691D01*
X166041958Y-97607070D01*
X166086873Y-97529275D01*
X166086874Y-97529274D01*
X166094475Y-97516108D01*
X166101795Y-97503430D01*
X166132768Y-97387836D01*
X166132768Y-97268164D01*
X166132768Y-97260569D01*
X166132767Y-97260551D01*
X166132767Y-93764559D01*
X166142208Y-93717102D01*
X166144655Y-93711192D01*
X166144659Y-93711186D01*
X166178767Y-93583892D01*
X166178767Y-93452108D01*
X166144659Y-93324814D01*
X166078767Y-93210686D01*
X165985581Y-93117500D01*
X165928517Y-93084554D01*
X165871454Y-93051608D01*
X165806347Y-93034163D01*
X165744159Y-93017500D01*
X165612375Y-93017500D01*
X165485079Y-93051608D01*
X165370953Y-93117500D01*
X165370950Y-93117502D01*
X165277769Y-93210683D01*
X165277767Y-93210686D01*
X165211875Y-93324812D01*
X165180265Y-93442784D01*
X165177767Y-93452108D01*
X165177767Y-93583892D01*
X165192715Y-93639679D01*
X165211875Y-93711186D01*
X165214326Y-93717102D01*
X165223767Y-93764559D01*
X165223767Y-97088378D01*
X165204082Y-97155417D01*
X165187448Y-97176059D01*
X164048326Y-98315181D01*
X163987003Y-98348666D01*
X163960645Y-98351500D01*
X152896889Y-98351500D01*
X152829850Y-98331815D01*
X152784095Y-98279011D01*
X152774151Y-98209853D01*
X152803176Y-98146297D01*
X152809208Y-98139819D01*
X153101527Y-97847500D01*
X154009127Y-96939898D01*
X154009132Y-96939895D01*
X154019335Y-96929691D01*
X154019337Y-96929691D01*
X154103958Y-96845070D01*
X154163794Y-96741431D01*
X154194767Y-96625836D01*
X154194767Y-96097999D01*
X160022078Y-96097999D01*
X160022079Y-96098000D01*
X161455785Y-96098000D01*
X161445156Y-96116409D01*
X161404267Y-96269009D01*
X161404267Y-96426991D01*
X161445156Y-96579591D01*
X161455785Y-96598000D01*
X160022079Y-96598000D01*
X160034209Y-96690137D01*
X160093585Y-96911730D01*
X160181369Y-97123659D01*
X160181373Y-97123668D01*
X160296076Y-97322338D01*
X160435722Y-97504329D01*
X160435728Y-97504336D01*
X160597930Y-97666538D01*
X160597937Y-97666544D01*
X160779928Y-97806190D01*
X160978598Y-97920893D01*
X160978607Y-97920897D01*
X161190536Y-98008681D01*
X161412129Y-98068057D01*
X161639556Y-98097998D01*
X161639573Y-98098000D01*
X161754267Y-98098000D01*
X161754267Y-96896482D01*
X161772676Y-96907111D01*
X161925276Y-96948000D01*
X162083258Y-96948000D01*
X162235858Y-96907111D01*
X162254267Y-96896482D01*
X162254267Y-98098000D01*
X162368961Y-98098000D01*
X162368977Y-98097998D01*
X162596404Y-98068057D01*
X162817997Y-98008681D01*
X163029926Y-97920897D01*
X163029935Y-97920893D01*
X163228605Y-97806190D01*
X163410596Y-97666544D01*
X163410603Y-97666538D01*
X163572805Y-97504336D01*
X163572811Y-97504329D01*
X163712457Y-97322338D01*
X163827160Y-97123668D01*
X163827164Y-97123659D01*
X163914948Y-96911730D01*
X163974324Y-96690137D01*
X163986455Y-96598000D01*
X162552749Y-96598000D01*
X162563378Y-96579591D01*
X162604267Y-96426991D01*
X162604267Y-96269009D01*
X162563378Y-96116409D01*
X162552749Y-96098000D01*
X163986455Y-96098000D01*
X163986455Y-96097999D01*
X163974324Y-96005862D01*
X163914948Y-95784269D01*
X163827164Y-95572340D01*
X163827160Y-95572331D01*
X163712457Y-95373661D01*
X163572811Y-95191670D01*
X163572805Y-95191663D01*
X163410603Y-95029461D01*
X163410596Y-95029455D01*
X163228605Y-94889809D01*
X163029935Y-94775106D01*
X163029926Y-94775102D01*
X162817997Y-94687318D01*
X162596404Y-94627942D01*
X162368977Y-94598001D01*
X162368961Y-94598000D01*
X162254267Y-94598000D01*
X162254267Y-95799517D01*
X162235858Y-95788889D01*
X162083258Y-95748000D01*
X161925276Y-95748000D01*
X161772676Y-95788889D01*
X161754267Y-95799517D01*
X161754267Y-94598000D01*
X161639573Y-94598000D01*
X161639556Y-94598001D01*
X161412129Y-94627942D01*
X161190536Y-94687318D01*
X160978607Y-94775102D01*
X160978598Y-94775106D01*
X160779928Y-94889809D01*
X160597937Y-95029455D01*
X160597930Y-95029461D01*
X160435728Y-95191663D01*
X160435722Y-95191670D01*
X160296076Y-95373661D01*
X160181373Y-95572331D01*
X160181369Y-95572340D01*
X160093585Y-95784269D01*
X160034209Y-96005862D01*
X160022078Y-96097999D01*
X154194767Y-96097999D01*
X154194767Y-91233837D01*
X160303767Y-91233837D01*
X160303767Y-91462162D01*
X160339482Y-91687660D01*
X160410037Y-91904803D01*
X160472753Y-92027889D01*
X160513688Y-92108228D01*
X160647888Y-92292937D01*
X160809330Y-92454379D01*
X160994039Y-92588579D01*
X161090151Y-92637550D01*
X161197463Y-92692229D01*
X161197465Y-92692229D01*
X161197468Y-92692231D01*
X161313859Y-92730049D01*
X161414606Y-92762784D01*
X161640105Y-92798500D01*
X161640110Y-92798500D01*
X162368429Y-92798500D01*
X162593927Y-92762784D01*
X162600901Y-92760518D01*
X162811066Y-92692231D01*
X163014495Y-92588579D01*
X163199204Y-92454379D01*
X163360646Y-92292937D01*
X163494846Y-92108228D01*
X163598498Y-91904799D01*
X163669051Y-91687660D01*
X163675078Y-91649608D01*
X163704767Y-91462162D01*
X163704767Y-91233837D01*
X163669051Y-91008339D01*
X163647593Y-90942300D01*
X163645084Y-90934578D01*
X163637783Y-90912108D01*
X192498767Y-90912108D01*
X192498767Y-91043891D01*
X192532875Y-91171187D01*
X192537203Y-91178683D01*
X192598767Y-91285314D01*
X192691953Y-91378500D01*
X192806081Y-91444392D01*
X192933375Y-91478500D01*
X192933377Y-91478500D01*
X193065157Y-91478500D01*
X193065159Y-91478500D01*
X193192453Y-91444392D01*
X193192463Y-91444386D01*
X193198373Y-91441939D01*
X193245827Y-91432500D01*
X197047644Y-91432500D01*
X197114683Y-91452185D01*
X197160438Y-91504989D01*
X197170382Y-91574147D01*
X197141357Y-91637703D01*
X197135325Y-91644181D01*
X193258325Y-95521181D01*
X193197002Y-95554666D01*
X193170644Y-95557500D01*
X193044375Y-95557500D01*
X192917079Y-95591608D01*
X192802953Y-95657500D01*
X192802950Y-95657502D01*
X192709769Y-95750683D01*
X192709767Y-95750686D01*
X192643875Y-95864812D01*
X192609767Y-95992108D01*
X192609767Y-96123891D01*
X192643875Y-96251187D01*
X192665541Y-96288712D01*
X192709767Y-96365314D01*
X192802953Y-96458500D01*
X192883817Y-96505187D01*
X192917077Y-96524390D01*
X192917081Y-96524392D01*
X193044375Y-96558500D01*
X193044377Y-96558500D01*
X193176157Y-96558500D01*
X193176159Y-96558500D01*
X193303453Y-96524392D01*
X193303457Y-96524389D01*
X193309373Y-96521940D01*
X193356825Y-96512501D01*
X193424101Y-96512501D01*
X193424103Y-96512501D01*
X193539697Y-96481527D01*
X193643337Y-96421690D01*
X203284127Y-86780898D01*
X203284132Y-86780895D01*
X203294335Y-86770691D01*
X203294337Y-86770691D01*
X203378958Y-86686070D01*
X203438794Y-86582431D01*
X203458345Y-86509465D01*
X203469768Y-86466836D01*
X203469768Y-86347164D01*
X203469767Y-86347160D01*
X203469767Y-81319559D01*
X203479208Y-81272102D01*
X203481655Y-81266192D01*
X203481659Y-81266186D01*
X203515767Y-81138892D01*
X203515767Y-81007108D01*
X203481659Y-80879814D01*
X203415767Y-80765686D01*
X203322581Y-80672500D01*
X203322579Y-80672499D01*
X203322577Y-80672497D01*
X203322013Y-80672172D01*
X203321632Y-80671772D01*
X203316132Y-80667552D01*
X203316790Y-80666694D01*
X203273800Y-80621602D01*
X203260581Y-80552994D01*
X203286553Y-80488131D01*
X203317219Y-80461561D01*
X203317132Y-80461448D01*
X203319041Y-80459982D01*
X203322023Y-80457399D01*
X203323581Y-80456500D01*
X203416767Y-80363314D01*
X203482659Y-80249186D01*
X203516767Y-80121892D01*
X203516767Y-79990108D01*
X203482659Y-79862814D01*
X203416767Y-79748686D01*
X203323581Y-79655500D01*
X203266517Y-79622554D01*
X203209454Y-79589608D01*
X203145806Y-79572554D01*
X203082159Y-79555500D01*
X202950375Y-79555500D01*
X202823084Y-79589607D01*
X202823082Y-79589607D01*
X202823081Y-79589608D01*
X202823079Y-79589608D01*
X202817161Y-79592061D01*
X202769707Y-79601500D01*
X202448431Y-79601500D01*
X202332836Y-79632473D01*
X202332833Y-79632474D01*
X202229200Y-79692307D01*
X202229194Y-79692311D01*
X201636578Y-80284927D01*
X201636574Y-80284933D01*
X201576739Y-80388568D01*
X201576740Y-80388568D01*
X201576740Y-80388569D01*
X201576740Y-80388570D01*
X201555457Y-80468000D01*
X201545766Y-80504165D01*
X201545766Y-80633825D01*
X201545767Y-80633838D01*
X201545767Y-85912378D01*
X201526082Y-85979417D01*
X201509448Y-86000059D01*
X197022326Y-90487181D01*
X196961003Y-90520666D01*
X196934645Y-90523500D01*
X193245827Y-90523500D01*
X193198373Y-90514061D01*
X193192457Y-90511610D01*
X193192453Y-90511608D01*
X193065159Y-90477500D01*
X192933375Y-90477500D01*
X192806079Y-90511608D01*
X192691953Y-90577500D01*
X192691950Y-90577502D01*
X192598769Y-90670683D01*
X192598767Y-90670686D01*
X192532875Y-90784812D01*
X192498767Y-90912108D01*
X163637783Y-90912108D01*
X163598498Y-90791201D01*
X163598496Y-90791198D01*
X163598496Y-90791196D01*
X163494845Y-90587771D01*
X163429016Y-90497166D01*
X163360646Y-90403063D01*
X163199204Y-90241621D01*
X163014495Y-90107421D01*
X162811070Y-90003770D01*
X162593927Y-89933215D01*
X162368429Y-89897500D01*
X162368424Y-89897500D01*
X161640110Y-89897500D01*
X161640105Y-89897500D01*
X161414606Y-89933215D01*
X161197463Y-90003770D01*
X160994038Y-90107421D01*
X160809328Y-90241622D01*
X160647889Y-90403061D01*
X160513688Y-90587771D01*
X160410037Y-90791196D01*
X160339482Y-91008339D01*
X160303767Y-91233837D01*
X154194767Y-91233837D01*
X154194767Y-88100500D01*
X154214452Y-88033461D01*
X154267256Y-87987706D01*
X154318767Y-87976500D01*
X172829827Y-87976500D01*
X172829829Y-87976500D01*
X172906256Y-87956021D01*
X172974778Y-87916460D01*
X173030727Y-87860511D01*
X175313130Y-85578108D01*
X176099767Y-85578108D01*
X176099767Y-85709892D01*
X176103014Y-85722009D01*
X176133875Y-85837187D01*
X176153865Y-85871810D01*
X176199767Y-85951314D01*
X176292953Y-86044500D01*
X176407081Y-86110392D01*
X176534375Y-86144500D01*
X176534377Y-86144500D01*
X176666157Y-86144500D01*
X176666159Y-86144500D01*
X176793453Y-86110392D01*
X176907581Y-86044500D01*
X176937262Y-86014819D01*
X176998585Y-85981334D01*
X177024943Y-85978500D01*
X178681591Y-85978500D01*
X178748630Y-85998185D01*
X178769272Y-86014819D01*
X178832953Y-86078500D01*
X178947081Y-86144392D01*
X179074375Y-86178500D01*
X179074377Y-86178500D01*
X179206157Y-86178500D01*
X179206159Y-86178500D01*
X179333453Y-86144392D01*
X179447581Y-86078500D01*
X179540767Y-85985314D01*
X179606659Y-85871186D01*
X179640767Y-85743892D01*
X179640767Y-85612108D01*
X179606659Y-85484814D01*
X179540767Y-85370686D01*
X179447581Y-85277500D01*
X179388691Y-85243500D01*
X179333454Y-85211608D01*
X179269806Y-85194554D01*
X179206159Y-85177500D01*
X179074375Y-85177500D01*
X178947079Y-85211608D01*
X178832953Y-85277500D01*
X178832950Y-85277502D01*
X178769272Y-85341181D01*
X178707949Y-85374666D01*
X178681591Y-85377500D01*
X177092943Y-85377500D01*
X177025904Y-85357815D01*
X177005262Y-85341181D01*
X176907583Y-85243502D01*
X176907581Y-85243500D01*
X176838270Y-85203483D01*
X176793454Y-85177608D01*
X176729806Y-85160554D01*
X176666159Y-85143500D01*
X176534375Y-85143500D01*
X176407079Y-85177608D01*
X176292953Y-85243500D01*
X176292950Y-85243502D01*
X176199769Y-85336683D01*
X176199767Y-85336686D01*
X176133875Y-85450812D01*
X176104200Y-85561564D01*
X176099767Y-85578108D01*
X175313130Y-85578108D01*
X176434419Y-84456819D01*
X176495742Y-84423334D01*
X176522100Y-84420500D01*
X178427591Y-84420500D01*
X178494630Y-84440185D01*
X178515272Y-84456819D01*
X178578953Y-84520500D01*
X178693081Y-84586392D01*
X178820375Y-84620500D01*
X178820377Y-84620500D01*
X178952157Y-84620500D01*
X178952159Y-84620500D01*
X179079453Y-84586392D01*
X179193581Y-84520500D01*
X179286767Y-84427314D01*
X179352659Y-84313186D01*
X179386767Y-84185892D01*
X179386767Y-84054108D01*
X179352659Y-83926814D01*
X179286767Y-83812686D01*
X179193581Y-83719500D01*
X179136517Y-83686554D01*
X179079454Y-83653608D01*
X179015806Y-83636554D01*
X178952159Y-83619500D01*
X178820375Y-83619500D01*
X178693079Y-83653608D01*
X178578953Y-83719500D01*
X178578950Y-83719502D01*
X178515272Y-83783181D01*
X178453949Y-83816666D01*
X178427591Y-83819500D01*
X176306705Y-83819500D01*
X176255753Y-83833152D01*
X176230277Y-83839979D01*
X176171201Y-83874087D01*
X176171200Y-83874086D01*
X176161759Y-83879537D01*
X176161754Y-83879541D01*
X172702115Y-87339181D01*
X172640792Y-87372666D01*
X172614434Y-87375500D01*
X154198943Y-87375500D01*
X154131904Y-87355815D01*
X154111262Y-87339181D01*
X154047583Y-87275502D01*
X154047581Y-87275500D01*
X153954877Y-87221977D01*
X153933454Y-87209608D01*
X153869806Y-87192554D01*
X153806159Y-87175500D01*
X153674375Y-87175500D01*
X153547079Y-87209608D01*
X153432953Y-87275500D01*
X153432950Y-87275502D01*
X153339769Y-87368683D01*
X153339767Y-87368686D01*
X153273875Y-87482812D01*
X153240731Y-87606509D01*
X153239767Y-87610108D01*
X153239767Y-87741892D01*
X153261683Y-87823684D01*
X153273875Y-87869186D01*
X153276326Y-87875102D01*
X153285767Y-87922559D01*
X153285767Y-96326378D01*
X153266082Y-96393417D01*
X153249448Y-96414059D01*
X152064326Y-97599181D01*
X152003003Y-97632666D01*
X151976645Y-97635500D01*
X151223608Y-97635500D01*
X151156569Y-97615815D01*
X151110814Y-97563011D01*
X151100870Y-97493853D01*
X151125232Y-97436014D01*
X151212457Y-97322338D01*
X151327160Y-97123668D01*
X151327164Y-97123659D01*
X151414948Y-96911730D01*
X151474324Y-96690137D01*
X151486455Y-96598000D01*
X150052749Y-96598000D01*
X150063378Y-96579591D01*
X150104267Y-96426991D01*
X150104267Y-96269009D01*
X150063378Y-96116409D01*
X150052749Y-96098000D01*
X151486455Y-96098000D01*
X151486455Y-96097999D01*
X151474324Y-96005862D01*
X151414948Y-95784269D01*
X151327164Y-95572340D01*
X151327160Y-95572331D01*
X151212457Y-95373661D01*
X151072811Y-95191670D01*
X151072805Y-95191663D01*
X150910603Y-95029461D01*
X150910596Y-95029455D01*
X150728605Y-94889809D01*
X150529935Y-94775106D01*
X150529926Y-94775102D01*
X150317997Y-94687318D01*
X150096404Y-94627942D01*
X149868977Y-94598001D01*
X149868961Y-94598000D01*
X149754267Y-94598000D01*
X149754267Y-95799517D01*
X149735858Y-95788889D01*
X149583258Y-95748000D01*
X149425276Y-95748000D01*
X149272676Y-95788889D01*
X149254267Y-95799517D01*
X149254267Y-94598000D01*
X149139573Y-94598000D01*
X149139556Y-94598001D01*
X148912129Y-94627942D01*
X148690536Y-94687318D01*
X148478607Y-94775102D01*
X148478598Y-94775106D01*
X148279928Y-94889809D01*
X148097937Y-95029455D01*
X148097930Y-95029461D01*
X147935728Y-95191663D01*
X147935722Y-95191670D01*
X147796076Y-95373661D01*
X147681373Y-95572331D01*
X147681369Y-95572340D01*
X147593585Y-95784269D01*
X147534209Y-96005862D01*
X147522078Y-96097999D01*
X147522079Y-96098000D01*
X148955785Y-96098000D01*
X148945156Y-96116409D01*
X148904267Y-96269009D01*
X148904267Y-96426991D01*
X148945156Y-96579591D01*
X148955785Y-96598000D01*
X147522079Y-96598000D01*
X147534209Y-96690137D01*
X147593585Y-96911730D01*
X147681369Y-97123659D01*
X147681373Y-97123668D01*
X147796076Y-97322338D01*
X147883302Y-97436014D01*
X147908496Y-97501183D01*
X147894457Y-97569628D01*
X147845643Y-97619617D01*
X147784926Y-97635500D01*
X135183889Y-97635500D01*
X135116850Y-97615815D01*
X135096208Y-97599181D01*
X132775028Y-95278001D01*
X132775026Y-95277998D01*
X132683339Y-95186311D01*
X132683333Y-95186306D01*
X132579701Y-95126474D01*
X132579696Y-95126472D01*
X132555270Y-95119926D01*
X132555270Y-95119927D01*
X132509686Y-95107713D01*
X132464103Y-95095499D01*
X132344431Y-95095499D01*
X132336835Y-95095499D01*
X132336819Y-95095500D01*
X131126827Y-95095500D01*
X131079373Y-95086061D01*
X131073457Y-95083610D01*
X131073453Y-95083608D01*
X130946159Y-95049500D01*
X130814375Y-95049500D01*
X130687079Y-95083608D01*
X130572953Y-95149500D01*
X130572950Y-95149502D01*
X130479769Y-95242683D01*
X130479767Y-95242686D01*
X130413875Y-95356812D01*
X130379767Y-95484108D01*
X130379767Y-95615891D01*
X130413875Y-95743187D01*
X130432347Y-95775181D01*
X130479767Y-95857314D01*
X130572953Y-95950500D01*
X130687081Y-96016392D01*
X130814375Y-96050500D01*
X130814377Y-96050500D01*
X130946157Y-96050500D01*
X130946159Y-96050500D01*
X131073453Y-96016392D01*
X131073463Y-96016386D01*
X131079373Y-96013939D01*
X131126827Y-96004500D01*
X132164645Y-96004500D01*
X132231684Y-96024185D01*
X132252326Y-96040819D01*
X134351326Y-98139819D01*
X134384811Y-98201142D01*
X134379827Y-98270834D01*
X134337955Y-98326767D01*
X134272491Y-98351184D01*
X134263645Y-98351500D01*
X127493622Y-98351500D01*
X127426583Y-98331815D01*
X127405941Y-98315181D01*
X124320868Y-95230108D01*
X128093767Y-95230108D01*
X128093767Y-95361892D01*
X128098559Y-95379775D01*
X128127875Y-95489187D01*
X128140348Y-95510790D01*
X128193767Y-95603314D01*
X128286953Y-95696500D01*
X128401081Y-95762392D01*
X128528375Y-95796500D01*
X128528377Y-95796500D01*
X128660157Y-95796500D01*
X128660159Y-95796500D01*
X128787453Y-95762392D01*
X128901581Y-95696500D01*
X128994767Y-95603314D01*
X129060659Y-95489186D01*
X129094767Y-95361892D01*
X129094767Y-95271832D01*
X129114452Y-95204793D01*
X129131086Y-95184151D01*
X134524419Y-89790819D01*
X134585742Y-89757334D01*
X134612100Y-89754500D01*
X144333434Y-89754500D01*
X144400473Y-89774185D01*
X144446228Y-89826989D01*
X144456172Y-89896147D01*
X144427147Y-89959703D01*
X144421115Y-89966181D01*
X141056600Y-93330695D01*
X141056594Y-93330703D01*
X141017041Y-93399212D01*
X141017038Y-93399217D01*
X140996559Y-93475647D01*
X140996559Y-94583323D01*
X140976874Y-94650362D01*
X140960241Y-94671004D01*
X140896559Y-94734686D01*
X140830667Y-94848812D01*
X140818157Y-94895502D01*
X140796559Y-94976108D01*
X140796559Y-95107892D01*
X140801538Y-95126473D01*
X140830667Y-95235187D01*
X140855386Y-95278001D01*
X140896559Y-95349314D01*
X140989745Y-95442500D01*
X141103873Y-95508392D01*
X141231167Y-95542500D01*
X141231169Y-95542500D01*
X141339433Y-95542500D01*
X141360678Y-95548738D01*
X141382767Y-95550318D01*
X141393550Y-95558390D01*
X141406472Y-95562185D01*
X141420971Y-95578918D01*
X141438700Y-95592190D01*
X141443407Y-95604810D01*
X141452227Y-95614989D01*
X141455378Y-95636906D01*
X141463117Y-95657654D01*
X141460254Y-95670814D01*
X141462171Y-95684147D01*
X141452971Y-95704290D01*
X141448265Y-95725927D01*
X141434996Y-95743652D01*
X141433146Y-95747703D01*
X141427114Y-95754181D01*
X141406114Y-95775181D01*
X141344791Y-95808666D01*
X141318433Y-95811500D01*
X141228375Y-95811500D01*
X141101079Y-95845608D01*
X140986953Y-95911500D01*
X140986950Y-95911502D01*
X140893769Y-96004683D01*
X140893767Y-96004686D01*
X140827875Y-96118812D01*
X140793767Y-96246108D01*
X140793767Y-96377891D01*
X140827875Y-96505187D01*
X140855169Y-96552460D01*
X140893767Y-96619314D01*
X140986953Y-96712500D01*
X141101081Y-96778392D01*
X141228375Y-96812500D01*
X141228377Y-96812500D01*
X141360157Y-96812500D01*
X141360159Y-96812500D01*
X141487453Y-96778392D01*
X141601581Y-96712500D01*
X141694767Y-96619314D01*
X141760659Y-96505186D01*
X141794767Y-96377892D01*
X141794767Y-96287832D01*
X141814452Y-96220793D01*
X141831086Y-96200151D01*
X142173922Y-95857316D01*
X142550727Y-95480511D01*
X142555970Y-95471430D01*
X142590288Y-95411989D01*
X142610767Y-95335562D01*
X142610767Y-93693833D01*
X142630452Y-93626794D01*
X142647086Y-93606152D01*
X144338086Y-91915152D01*
X144399409Y-91881667D01*
X144469101Y-91886651D01*
X144525034Y-91928523D01*
X144549451Y-91993987D01*
X144549767Y-92002833D01*
X144549767Y-95853323D01*
X144530082Y-95920362D01*
X144513449Y-95941004D01*
X144449767Y-96004686D01*
X144383875Y-96118812D01*
X144349767Y-96246108D01*
X144349767Y-96377891D01*
X144383875Y-96505187D01*
X144411169Y-96552460D01*
X144449767Y-96619314D01*
X144542953Y-96712500D01*
X144657081Y-96778392D01*
X144784375Y-96812500D01*
X144784377Y-96812500D01*
X144916157Y-96812500D01*
X144916159Y-96812500D01*
X145043453Y-96778392D01*
X145157581Y-96712500D01*
X145250767Y-96619314D01*
X145316659Y-96505186D01*
X145350767Y-96377892D01*
X145350767Y-96246108D01*
X145316659Y-96118814D01*
X145316651Y-96118801D01*
X145296020Y-96083066D01*
X145250767Y-96004686D01*
X145187085Y-95941004D01*
X145153601Y-95879680D01*
X145150767Y-95853323D01*
X145150767Y-92169833D01*
X145170452Y-92102794D01*
X145187086Y-92082152D01*
X146035401Y-91233837D01*
X147803767Y-91233837D01*
X147803767Y-91462162D01*
X147839482Y-91687660D01*
X147910037Y-91904803D01*
X147972753Y-92027889D01*
X148013688Y-92108228D01*
X148147888Y-92292937D01*
X148309330Y-92454379D01*
X148494039Y-92588579D01*
X148590151Y-92637550D01*
X148697463Y-92692229D01*
X148697465Y-92692229D01*
X148697468Y-92692231D01*
X148813859Y-92730049D01*
X148914606Y-92762784D01*
X149140105Y-92798500D01*
X149140110Y-92798500D01*
X149868429Y-92798500D01*
X150093927Y-92762784D01*
X150100901Y-92760518D01*
X150311066Y-92692231D01*
X150514495Y-92588579D01*
X150699204Y-92454379D01*
X150860646Y-92292937D01*
X150994846Y-92108228D01*
X151098498Y-91904799D01*
X151169051Y-91687660D01*
X151175078Y-91649608D01*
X151204767Y-91462162D01*
X151204767Y-91233837D01*
X151169051Y-91008339D01*
X151120169Y-90857897D01*
X151098498Y-90791201D01*
X151098496Y-90791198D01*
X151098496Y-90791196D01*
X150994845Y-90587771D01*
X150929016Y-90497166D01*
X150860646Y-90403063D01*
X150699204Y-90241621D01*
X150514495Y-90107421D01*
X150311070Y-90003770D01*
X150093927Y-89933215D01*
X149868429Y-89897500D01*
X149868424Y-89897500D01*
X149140110Y-89897500D01*
X149140105Y-89897500D01*
X148914606Y-89933215D01*
X148697463Y-90003770D01*
X148494038Y-90107421D01*
X148309328Y-90241622D01*
X148147889Y-90403061D01*
X148013688Y-90587771D01*
X147910037Y-90791196D01*
X147839482Y-91008339D01*
X147803767Y-91233837D01*
X146035401Y-91233837D01*
X146127948Y-91141290D01*
X150526786Y-86742452D01*
X154926460Y-82342778D01*
X154966021Y-82274256D01*
X154986500Y-82197829D01*
X154986500Y-79233837D01*
X160303767Y-79233837D01*
X160303767Y-79462162D01*
X160339482Y-79687660D01*
X160410037Y-79904803D01*
X160502925Y-80087104D01*
X160513688Y-80108228D01*
X160647888Y-80292937D01*
X160809330Y-80454379D01*
X160994039Y-80588579D01*
X161082865Y-80633838D01*
X161197463Y-80692229D01*
X161197465Y-80692229D01*
X161197468Y-80692231D01*
X161313859Y-80730049D01*
X161414606Y-80762784D01*
X161640105Y-80798500D01*
X161640110Y-80798500D01*
X162368429Y-80798500D01*
X162593927Y-80762784D01*
X162626316Y-80752260D01*
X162811066Y-80692231D01*
X163014495Y-80588579D01*
X163199204Y-80454379D01*
X163360646Y-80292937D01*
X163494846Y-80108228D01*
X163598498Y-79904799D01*
X163669051Y-79687660D01*
X163704767Y-79462162D01*
X163704767Y-79233837D01*
X163669051Y-79008339D01*
X163628453Y-78883394D01*
X163617586Y-78849947D01*
X168092267Y-78849947D01*
X168092267Y-79086052D01*
X168129201Y-79319247D01*
X168202164Y-79543802D01*
X168309354Y-79754174D01*
X168369605Y-79837104D01*
X168369607Y-79837105D01*
X169068479Y-79138233D01*
X169079749Y-79180292D01*
X169152157Y-79305708D01*
X169254559Y-79408110D01*
X169379975Y-79480518D01*
X169422032Y-79491787D01*
X168723160Y-80190658D01*
X168806095Y-80250914D01*
X169016464Y-80358102D01*
X169241019Y-80431065D01*
X169241018Y-80431065D01*
X169474215Y-80468000D01*
X169710319Y-80468000D01*
X169943514Y-80431065D01*
X170168069Y-80358102D01*
X170378430Y-80250918D01*
X170378436Y-80250914D01*
X170461371Y-80190658D01*
X170461372Y-80190658D01*
X169762500Y-79491787D01*
X169804559Y-79480518D01*
X169929975Y-79408110D01*
X170032377Y-79305708D01*
X170104785Y-79180292D01*
X170116054Y-79138233D01*
X170814925Y-79837105D01*
X170814925Y-79837104D01*
X170875181Y-79754169D01*
X170875185Y-79754163D01*
X170982369Y-79543802D01*
X171055332Y-79319247D01*
X171092267Y-79086052D01*
X171092267Y-78849947D01*
X174592267Y-78849947D01*
X174592267Y-79086052D01*
X174629201Y-79319247D01*
X174702164Y-79543802D01*
X174809354Y-79754174D01*
X174869605Y-79837104D01*
X174869607Y-79837105D01*
X175568479Y-79138233D01*
X175579749Y-79180292D01*
X175652157Y-79305708D01*
X175754559Y-79408110D01*
X175879975Y-79480518D01*
X175922032Y-79491787D01*
X175223160Y-80190658D01*
X175306095Y-80250914D01*
X175516464Y-80358102D01*
X175741019Y-80431065D01*
X175741018Y-80431065D01*
X175974215Y-80468000D01*
X176210319Y-80468000D01*
X176443514Y-80431065D01*
X176668069Y-80358102D01*
X176878430Y-80250918D01*
X176878436Y-80250914D01*
X176961371Y-80190658D01*
X176961372Y-80190658D01*
X176262500Y-79491787D01*
X176304559Y-79480518D01*
X176429975Y-79408110D01*
X176532377Y-79305708D01*
X176604785Y-79180292D01*
X176616054Y-79138233D01*
X177314925Y-79837105D01*
X177314925Y-79837104D01*
X177375181Y-79754169D01*
X177375185Y-79754163D01*
X177482369Y-79543802D01*
X177555332Y-79319247D01*
X177592267Y-79086052D01*
X177592267Y-78849947D01*
X177555332Y-78616752D01*
X177482369Y-78392197D01*
X177375181Y-78181828D01*
X177314925Y-78098894D01*
X177314925Y-78098893D01*
X176616054Y-78797765D01*
X176604785Y-78755708D01*
X176532377Y-78630292D01*
X176429975Y-78527890D01*
X176304559Y-78455482D01*
X176262501Y-78444212D01*
X176961372Y-77745340D01*
X176961371Y-77745338D01*
X176878441Y-77685087D01*
X176668069Y-77577897D01*
X176443514Y-77504934D01*
X176443515Y-77504934D01*
X176210319Y-77468000D01*
X175974215Y-77468000D01*
X175741019Y-77504934D01*
X175516464Y-77577897D01*
X175306097Y-77685084D01*
X175223161Y-77745340D01*
X175922033Y-78444212D01*
X175879975Y-78455482D01*
X175754559Y-78527890D01*
X175652157Y-78630292D01*
X175579749Y-78755708D01*
X175568479Y-78797766D01*
X174869607Y-78098894D01*
X174809351Y-78181830D01*
X174702164Y-78392197D01*
X174629201Y-78616752D01*
X174592267Y-78849947D01*
X171092267Y-78849947D01*
X171055332Y-78616752D01*
X170982369Y-78392197D01*
X170875181Y-78181828D01*
X170814925Y-78098894D01*
X170814925Y-78098893D01*
X170116054Y-78797765D01*
X170104785Y-78755708D01*
X170032377Y-78630292D01*
X169929975Y-78527890D01*
X169804559Y-78455482D01*
X169762501Y-78444212D01*
X170461372Y-77745340D01*
X170461371Y-77745339D01*
X170378441Y-77685087D01*
X170168069Y-77577897D01*
X169943514Y-77504934D01*
X169943515Y-77504934D01*
X169710319Y-77468000D01*
X169474215Y-77468000D01*
X169241019Y-77504934D01*
X169016464Y-77577897D01*
X168806097Y-77685084D01*
X168723161Y-77745340D01*
X169422033Y-78444212D01*
X169379975Y-78455482D01*
X169254559Y-78527890D01*
X169152157Y-78630292D01*
X169079749Y-78755708D01*
X169068479Y-78797766D01*
X168369607Y-78098894D01*
X168309351Y-78181830D01*
X168202164Y-78392197D01*
X168129201Y-78616752D01*
X168092267Y-78849947D01*
X163617586Y-78849947D01*
X163598498Y-78791201D01*
X163494846Y-78587772D01*
X163360646Y-78403063D01*
X163199204Y-78241621D01*
X163014495Y-78107421D01*
X162997758Y-78098893D01*
X162811070Y-78003770D01*
X162593927Y-77933215D01*
X162479373Y-77915072D01*
X162368429Y-77897500D01*
X162368424Y-77897500D01*
X161640110Y-77897500D01*
X161640105Y-77897500D01*
X161414606Y-77933215D01*
X161197463Y-78003770D01*
X160994038Y-78107421D01*
X160809328Y-78241622D01*
X160647889Y-78403061D01*
X160513688Y-78587771D01*
X160410037Y-78791196D01*
X160339482Y-79008339D01*
X160303767Y-79233837D01*
X154986500Y-79233837D01*
X154986500Y-77152171D01*
X154984849Y-77146011D01*
X154977753Y-77119527D01*
X154966023Y-77075747D01*
X154966022Y-77075746D01*
X154966022Y-77075745D01*
X154926460Y-77007222D01*
X152779419Y-74860181D01*
X152745934Y-74798858D01*
X152750918Y-74729166D01*
X152792790Y-74673233D01*
X152858254Y-74648816D01*
X152867100Y-74648500D01*
X160236668Y-74648500D01*
X160303707Y-74668185D01*
X160349462Y-74720989D01*
X160354598Y-74734181D01*
X160410036Y-74904799D01*
X160513688Y-75108228D01*
X160647888Y-75292937D01*
X160809330Y-75454379D01*
X160994039Y-75588579D01*
X161090151Y-75637550D01*
X161197463Y-75692229D01*
X161197465Y-75692229D01*
X161197468Y-75692231D01*
X161313859Y-75730049D01*
X161414606Y-75762784D01*
X161640105Y-75798500D01*
X161640110Y-75798500D01*
X162368429Y-75798500D01*
X162593927Y-75762784D01*
X162811066Y-75692231D01*
X163014495Y-75588579D01*
X163199204Y-75454379D01*
X163360646Y-75292937D01*
X163494846Y-75108228D01*
X163598498Y-74904799D01*
X163669051Y-74687660D01*
X163688877Y-74562486D01*
X163704767Y-74462162D01*
X163704767Y-74233837D01*
X163669051Y-74008339D01*
X163598496Y-73791196D01*
X163500312Y-73598500D01*
X163494846Y-73587772D01*
X163360646Y-73403063D01*
X163199204Y-73241621D01*
X163014495Y-73107421D01*
X162811070Y-73003770D01*
X162593927Y-72933215D01*
X162368429Y-72897500D01*
X162368424Y-72897500D01*
X161640110Y-72897500D01*
X161640105Y-72897500D01*
X161414606Y-72933215D01*
X161197463Y-73003770D01*
X160994038Y-73107421D01*
X160809328Y-73241622D01*
X160647889Y-73403061D01*
X160513688Y-73587771D01*
X160410037Y-73791198D01*
X160354599Y-73961818D01*
X160315161Y-74019494D01*
X160250803Y-74046692D01*
X160236668Y-74047500D01*
X151271866Y-74047500D01*
X151204827Y-74027815D01*
X151159072Y-73975011D01*
X151153935Y-73961818D01*
X151098498Y-73791201D01*
X150994846Y-73587772D01*
X150860646Y-73403063D01*
X150699204Y-73241621D01*
X150514495Y-73107421D01*
X150311070Y-73003770D01*
X150093927Y-72933215D01*
X149868429Y-72897500D01*
X149868424Y-72897500D01*
X149140110Y-72897500D01*
X149140105Y-72897500D01*
X148914606Y-72933215D01*
X148697463Y-73003770D01*
X148494038Y-73107421D01*
X148309328Y-73241622D01*
X148147889Y-73403061D01*
X148013688Y-73587771D01*
X147910037Y-73791196D01*
X147839482Y-74008339D01*
X147803767Y-74233837D01*
X147803767Y-74462162D01*
X147839482Y-74687660D01*
X147910037Y-74904803D01*
X147922283Y-74928836D01*
X148013688Y-75108228D01*
X148147888Y-75292937D01*
X148309330Y-75454379D01*
X148494039Y-75588579D01*
X148590151Y-75637550D01*
X148697463Y-75692229D01*
X148697465Y-75692229D01*
X148697468Y-75692231D01*
X148813859Y-75730049D01*
X148914606Y-75762784D01*
X149140105Y-75798500D01*
X149140110Y-75798500D01*
X149868429Y-75798500D01*
X150093927Y-75762784D01*
X150311066Y-75692231D01*
X150514495Y-75588579D01*
X150699204Y-75454379D01*
X150860646Y-75292937D01*
X150994846Y-75108228D01*
X151098498Y-74904799D01*
X151153935Y-74734181D01*
X151193373Y-74676506D01*
X151257731Y-74649308D01*
X151271866Y-74648500D01*
X151666434Y-74648500D01*
X151733473Y-74668185D01*
X151754115Y-74684819D01*
X152984115Y-75914819D01*
X153017600Y-75976142D01*
X153012616Y-76045834D01*
X152970744Y-76101767D01*
X152905280Y-76126184D01*
X152896434Y-76126500D01*
X152785375Y-76126500D01*
X152658079Y-76160608D01*
X152543953Y-76226500D01*
X152543950Y-76226502D01*
X152450769Y-76319683D01*
X152450767Y-76319686D01*
X152384875Y-76433812D01*
X152350767Y-76561108D01*
X152350767Y-76692891D01*
X152384875Y-76820187D01*
X152407153Y-76858773D01*
X152450767Y-76934314D01*
X152543953Y-77027500D01*
X152615768Y-77068963D01*
X152663982Y-77119527D01*
X152677767Y-77176348D01*
X152677767Y-82674167D01*
X152658082Y-82741206D01*
X152641448Y-82761848D01*
X152220448Y-83182848D01*
X152159125Y-83216333D01*
X152089433Y-83211349D01*
X152033500Y-83169477D01*
X152009083Y-83104013D01*
X152008767Y-83095167D01*
X152008767Y-77720676D01*
X152028452Y-77653637D01*
X152045086Y-77632995D01*
X152108767Y-77569314D01*
X152174659Y-77455186D01*
X152208767Y-77327892D01*
X152208767Y-77196108D01*
X152174659Y-77068814D01*
X152108767Y-76954686D01*
X152015581Y-76861500D01*
X151944023Y-76820186D01*
X151901454Y-76795608D01*
X151837806Y-76778554D01*
X151774159Y-76761500D01*
X151642375Y-76761500D01*
X151515079Y-76795608D01*
X151400953Y-76861500D01*
X151400950Y-76861502D01*
X151307769Y-76954683D01*
X151307767Y-76954686D01*
X151241875Y-77068812D01*
X151207767Y-77196108D01*
X151207767Y-77327891D01*
X151241875Y-77455187D01*
X151249273Y-77468000D01*
X151307767Y-77569314D01*
X151307769Y-77569316D01*
X151371448Y-77632995D01*
X151404933Y-77694318D01*
X151407767Y-77720676D01*
X151407767Y-78960125D01*
X151388082Y-79027164D01*
X151335278Y-79072919D01*
X151266120Y-79082863D01*
X151202564Y-79053838D01*
X151165836Y-78998444D01*
X151098496Y-78791196D01*
X150994845Y-78587771D01*
X150860646Y-78403063D01*
X150699204Y-78241621D01*
X150514495Y-78107421D01*
X150497758Y-78098893D01*
X150311070Y-78003770D01*
X150093927Y-77933215D01*
X149868429Y-77897500D01*
X149868424Y-77897500D01*
X149140110Y-77897500D01*
X149140105Y-77897500D01*
X148914606Y-77933215D01*
X148697463Y-78003770D01*
X148494038Y-78107421D01*
X148309328Y-78241622D01*
X148147889Y-78403061D01*
X148013688Y-78587771D01*
X147910037Y-78791196D01*
X147839482Y-79008339D01*
X147803767Y-79233837D01*
X147803767Y-79462162D01*
X147839482Y-79687660D01*
X147910037Y-79904803D01*
X148002925Y-80087104D01*
X148013688Y-80108228D01*
X148147888Y-80292937D01*
X148309330Y-80454379D01*
X148494039Y-80588579D01*
X148582865Y-80633838D01*
X148697463Y-80692229D01*
X148697465Y-80692229D01*
X148697468Y-80692231D01*
X148914607Y-80762784D01*
X149094737Y-80791313D01*
X149099165Y-80792015D01*
X149162299Y-80821944D01*
X149199231Y-80881255D01*
X149203767Y-80914488D01*
X149203767Y-84116167D01*
X149184082Y-84183206D01*
X149167448Y-84203848D01*
X144254115Y-89117181D01*
X144192792Y-89150666D01*
X144166434Y-89153500D01*
X134396705Y-89153500D01*
X134320277Y-89173978D01*
X134251756Y-89213540D01*
X134251753Y-89213542D01*
X128706114Y-94759181D01*
X128644791Y-94792666D01*
X128618433Y-94795500D01*
X128528375Y-94795500D01*
X128401079Y-94829608D01*
X128286953Y-94895500D01*
X128286950Y-94895502D01*
X128193769Y-94988683D01*
X128193767Y-94988686D01*
X128127875Y-95102812D01*
X128105503Y-95186309D01*
X128093767Y-95230108D01*
X124320868Y-95230108D01*
X123015158Y-93924398D01*
X122981673Y-93863075D01*
X122986657Y-93793383D01*
X123028529Y-93737450D01*
X123083446Y-93714243D01*
X123103517Y-93711064D01*
X123328069Y-93638102D01*
X123538430Y-93530918D01*
X123538436Y-93530914D01*
X123621371Y-93470658D01*
X123621372Y-93470658D01*
X122922501Y-92771787D01*
X122964559Y-92760518D01*
X123089975Y-92688110D01*
X123192377Y-92585708D01*
X123264785Y-92460292D01*
X123276054Y-92418234D01*
X123974925Y-93117105D01*
X123974925Y-93117104D01*
X124035181Y-93034169D01*
X124035185Y-93034163D01*
X124142369Y-92823802D01*
X124215332Y-92599247D01*
X124252267Y-92366052D01*
X124252267Y-92129947D01*
X124215332Y-91896752D01*
X124142369Y-91672197D01*
X124035181Y-91461828D01*
X123974925Y-91378894D01*
X123974925Y-91378893D01*
X123276054Y-92077765D01*
X123264785Y-92035708D01*
X123192377Y-91910292D01*
X123089975Y-91807890D01*
X122964559Y-91735482D01*
X122922500Y-91724212D01*
X123621372Y-91025340D01*
X123621371Y-91025338D01*
X123538441Y-90965087D01*
X123328069Y-90857897D01*
X123103514Y-90784934D01*
X123103515Y-90784934D01*
X122870319Y-90748000D01*
X122634215Y-90748000D01*
X122401019Y-90784934D01*
X122176464Y-90857897D01*
X121966092Y-90965086D01*
X121949651Y-90977032D01*
X121883844Y-91000511D01*
X121815790Y-90984684D01*
X121767096Y-90934578D01*
X121752767Y-90876713D01*
X121752767Y-90131621D01*
X121772452Y-90064582D01*
X121789081Y-90043945D01*
X123661303Y-88171722D01*
X123701536Y-88144842D01*
X123707444Y-88142394D01*
X123707453Y-88142392D01*
X123821581Y-88076500D01*
X123914767Y-87983314D01*
X123980659Y-87869186D01*
X124014767Y-87741892D01*
X124014767Y-87610108D01*
X123980659Y-87482814D01*
X123914767Y-87368686D01*
X123821581Y-87275500D01*
X123728877Y-87221977D01*
X123707454Y-87209608D01*
X123643806Y-87192554D01*
X123580159Y-87175500D01*
X123448375Y-87175500D01*
X123321079Y-87209608D01*
X123206953Y-87275500D01*
X123206950Y-87275502D01*
X123113769Y-87368683D01*
X123113767Y-87368686D01*
X123047872Y-87482818D01*
X123045419Y-87488741D01*
X123018541Y-87528964D01*
X121019199Y-89528307D01*
X120934578Y-89612927D01*
X120934574Y-89612933D01*
X120874739Y-89716568D01*
X120874740Y-89716568D01*
X120874740Y-89716569D01*
X120874740Y-89716570D01*
X120860742Y-89768812D01*
X120843766Y-89832165D01*
X120843766Y-89961825D01*
X120843767Y-89961838D01*
X120843767Y-92782818D01*
X120843766Y-92782836D01*
X120843766Y-92910102D01*
X120868193Y-93001267D01*
X120874739Y-93025696D01*
X120874741Y-93025701D01*
X120934573Y-93129333D01*
X120934578Y-93129339D01*
X121026262Y-93221023D01*
X121026268Y-93221028D01*
X123185015Y-95379775D01*
X123218500Y-95441098D01*
X123213516Y-95510790D01*
X123171644Y-95566723D01*
X123106180Y-95591140D01*
X123059017Y-95585387D01*
X123033393Y-95577061D01*
X123033386Y-95577060D01*
X122846753Y-95547500D01*
X122846748Y-95547500D01*
X122657786Y-95547500D01*
X122657781Y-95547500D01*
X122471148Y-95577059D01*
X122291430Y-95635454D01*
X122123067Y-95721240D01*
X122066427Y-95762392D01*
X121970194Y-95832310D01*
X121970192Y-95832312D01*
X121970191Y-95832312D01*
X121836579Y-95965924D01*
X121836579Y-95965925D01*
X121836577Y-95965927D01*
X121805525Y-96008666D01*
X121725507Y-96118800D01*
X121639721Y-96287163D01*
X121581326Y-96466881D01*
X121551767Y-96653513D01*
X121551767Y-96842486D01*
X121581326Y-97029118D01*
X121639721Y-97208836D01*
X121720930Y-97368216D01*
X121725507Y-97377199D01*
X121836577Y-97530073D01*
X121970194Y-97663690D01*
X122123068Y-97774760D01*
X122184753Y-97806190D01*
X122291430Y-97860545D01*
X122291432Y-97860545D01*
X122291435Y-97860547D01*
X122358996Y-97882499D01*
X122471148Y-97918940D01*
X122657781Y-97948500D01*
X122657786Y-97948500D01*
X122846753Y-97948500D01*
X123033385Y-97918940D01*
X123084951Y-97902185D01*
X123213099Y-97860547D01*
X123381466Y-97774760D01*
X123534340Y-97663690D01*
X123667957Y-97530073D01*
X123779027Y-97377199D01*
X123864814Y-97208832D01*
X123923207Y-97029118D01*
X123923820Y-97025248D01*
X123952767Y-96842486D01*
X123952767Y-96653513D01*
X123923207Y-96466881D01*
X123914879Y-96441251D01*
X123912884Y-96371410D01*
X123948963Y-96311577D01*
X124011664Y-96280748D01*
X124081078Y-96288712D01*
X124120491Y-96315251D01*
X126653059Y-98847819D01*
X126686544Y-98909142D01*
X126681560Y-98978834D01*
X126639688Y-99034767D01*
X126574224Y-99059184D01*
X126565378Y-99059500D01*
X109212100Y-99059500D01*
X109145061Y-99039815D01*
X109124419Y-99023181D01*
X108557086Y-98455848D01*
X108523601Y-98394525D01*
X108520767Y-98368167D01*
X108520767Y-98278110D01*
X108520767Y-98278108D01*
X108486659Y-98150814D01*
X108439134Y-98068499D01*
X108422662Y-98000600D01*
X108445514Y-97934573D01*
X108500435Y-97891383D01*
X108546522Y-97882500D01*
X113647827Y-97882500D01*
X113647829Y-97882500D01*
X113724256Y-97862021D01*
X113792778Y-97822460D01*
X113848727Y-97766511D01*
X114841535Y-96773701D01*
X114902856Y-96740218D01*
X114972547Y-96745202D01*
X115028481Y-96787073D01*
X115051687Y-96841985D01*
X115081327Y-97029119D01*
X115139721Y-97208836D01*
X115220930Y-97368216D01*
X115225507Y-97377199D01*
X115336577Y-97530073D01*
X115470194Y-97663690D01*
X115623068Y-97774760D01*
X115684753Y-97806190D01*
X115791430Y-97860545D01*
X115791432Y-97860545D01*
X115791435Y-97860547D01*
X115858996Y-97882499D01*
X115971148Y-97918940D01*
X116157781Y-97948500D01*
X116157786Y-97948500D01*
X116346753Y-97948500D01*
X116533385Y-97918940D01*
X116584951Y-97902185D01*
X116713099Y-97860547D01*
X116881466Y-97774760D01*
X117034340Y-97663690D01*
X117167957Y-97530073D01*
X117279027Y-97377199D01*
X117364814Y-97208832D01*
X117423207Y-97029118D01*
X117423820Y-97025248D01*
X117452767Y-96842486D01*
X117452767Y-96653513D01*
X117423207Y-96466881D01*
X117372745Y-96311577D01*
X117364814Y-96287168D01*
X117364812Y-96287165D01*
X117364812Y-96287163D01*
X117319557Y-96198347D01*
X117279027Y-96118801D01*
X117167957Y-95965927D01*
X117034340Y-95832310D01*
X116881466Y-95721240D01*
X116832909Y-95696499D01*
X116713103Y-95635454D01*
X116533385Y-95577059D01*
X116346753Y-95547500D01*
X116346748Y-95547500D01*
X116157786Y-95547500D01*
X116157781Y-95547500D01*
X115971148Y-95577059D01*
X115791430Y-95635454D01*
X115623067Y-95721240D01*
X115566427Y-95762392D01*
X115470194Y-95832310D01*
X115470192Y-95832312D01*
X115470191Y-95832312D01*
X115390448Y-95912056D01*
X115329125Y-95945541D01*
X115259433Y-95940557D01*
X115203500Y-95898685D01*
X115179083Y-95833221D01*
X115178767Y-95824375D01*
X115178767Y-93565522D01*
X115198452Y-93498483D01*
X115251256Y-93452728D01*
X115320414Y-93442784D01*
X115375653Y-93465204D01*
X115466095Y-93530914D01*
X115676464Y-93638102D01*
X115901019Y-93711065D01*
X115901018Y-93711065D01*
X116134215Y-93748000D01*
X116370319Y-93748000D01*
X116603514Y-93711065D01*
X116828069Y-93638102D01*
X117038430Y-93530918D01*
X117038436Y-93530914D01*
X117121371Y-93470658D01*
X117121372Y-93470658D01*
X116422501Y-92771787D01*
X116464559Y-92760518D01*
X116589975Y-92688110D01*
X116692377Y-92585708D01*
X116764785Y-92460292D01*
X116776054Y-92418234D01*
X117474925Y-93117105D01*
X117474925Y-93117104D01*
X117535181Y-93034169D01*
X117535185Y-93034163D01*
X117642369Y-92823802D01*
X117715332Y-92599247D01*
X117752267Y-92366052D01*
X117752267Y-92129947D01*
X117715332Y-91896752D01*
X117642369Y-91672197D01*
X117535181Y-91461828D01*
X117474925Y-91378894D01*
X117474925Y-91378893D01*
X116776054Y-92077765D01*
X116764785Y-92035708D01*
X116692377Y-91910292D01*
X116589975Y-91807890D01*
X116464559Y-91735482D01*
X116422500Y-91724212D01*
X117121372Y-91025340D01*
X117121371Y-91025338D01*
X117038441Y-90965087D01*
X116828069Y-90857897D01*
X116603514Y-90784934D01*
X116603515Y-90784934D01*
X116370319Y-90748000D01*
X116134215Y-90748000D01*
X115901019Y-90784934D01*
X115676464Y-90857897D01*
X115466091Y-90965087D01*
X115375652Y-91030795D01*
X115309845Y-91054275D01*
X115241792Y-91038449D01*
X115193097Y-90988343D01*
X115178767Y-90930477D01*
X115178767Y-85350441D01*
X115178767Y-85350438D01*
X115171712Y-85324108D01*
X119203767Y-85324108D01*
X119203767Y-85455892D01*
X119210843Y-85482300D01*
X119237875Y-85583187D01*
X119246162Y-85597540D01*
X119303767Y-85697314D01*
X119303769Y-85697316D01*
X119367448Y-85760995D01*
X119400933Y-85822318D01*
X119403767Y-85848676D01*
X119403767Y-96869323D01*
X119384082Y-96936362D01*
X119367449Y-96957004D01*
X119303767Y-97020686D01*
X119237875Y-97134812D01*
X119207551Y-97247986D01*
X119203767Y-97262108D01*
X119203767Y-97393892D01*
X119218625Y-97449345D01*
X119237875Y-97521187D01*
X119243007Y-97530075D01*
X119303767Y-97635314D01*
X119396953Y-97728500D01*
X119511081Y-97794392D01*
X119638375Y-97828500D01*
X119638377Y-97828500D01*
X119770157Y-97828500D01*
X119770159Y-97828500D01*
X119897453Y-97794392D01*
X120011581Y-97728500D01*
X120104767Y-97635314D01*
X120170659Y-97521186D01*
X120204767Y-97393892D01*
X120204767Y-97262108D01*
X120170659Y-97134814D01*
X120104767Y-97020686D01*
X120041085Y-96957004D01*
X120007601Y-96895680D01*
X120004767Y-96869323D01*
X120004767Y-85848676D01*
X120024452Y-85781637D01*
X120041086Y-85760995D01*
X120065739Y-85736342D01*
X120104767Y-85697314D01*
X120170659Y-85583186D01*
X120204767Y-85455892D01*
X120204767Y-85324108D01*
X120170659Y-85196814D01*
X120104767Y-85082686D01*
X120011581Y-84989500D01*
X119917732Y-84935316D01*
X119897454Y-84923608D01*
X119816407Y-84901892D01*
X119770159Y-84889500D01*
X119638375Y-84889500D01*
X119511079Y-84923608D01*
X119396953Y-84989500D01*
X119396950Y-84989502D01*
X119303769Y-85082683D01*
X119303767Y-85082686D01*
X119237875Y-85196812D01*
X119225365Y-85243502D01*
X119203767Y-85324108D01*
X115171712Y-85324108D01*
X115158288Y-85274011D01*
X115122260Y-85211608D01*
X115118731Y-85205495D01*
X115118725Y-85205487D01*
X114108279Y-84195041D01*
X114108271Y-84195035D01*
X114075320Y-84176011D01*
X114075316Y-84176010D01*
X114050372Y-84161608D01*
X114039757Y-84155479D01*
X114039758Y-84155479D01*
X114001542Y-84145239D01*
X113963329Y-84135000D01*
X113963327Y-84135000D01*
X113812943Y-84135000D01*
X113745904Y-84115315D01*
X113725262Y-84098681D01*
X113661583Y-84035002D01*
X113661581Y-84035000D01*
X113604517Y-84002054D01*
X113547454Y-83969108D01*
X113483806Y-83952054D01*
X113420159Y-83935000D01*
X113288375Y-83935000D01*
X113161079Y-83969108D01*
X113046953Y-84035000D01*
X113046950Y-84035002D01*
X112953769Y-84128183D01*
X112953767Y-84128186D01*
X112887875Y-84242312D01*
X112853767Y-84369608D01*
X112853767Y-84501391D01*
X112887875Y-84628687D01*
X112920821Y-84685750D01*
X112953767Y-84742814D01*
X112953769Y-84742816D01*
X113036022Y-84825069D01*
X113069507Y-84886392D01*
X113064523Y-84956084D01*
X113036022Y-85000431D01*
X112953769Y-85082683D01*
X112953767Y-85082686D01*
X112887875Y-85196812D01*
X112875365Y-85243502D01*
X112853767Y-85324108D01*
X112853767Y-85455892D01*
X112860843Y-85482300D01*
X112887875Y-85583187D01*
X112896162Y-85597540D01*
X112953767Y-85697314D01*
X112953769Y-85697316D01*
X113017448Y-85760995D01*
X113050933Y-85822318D01*
X113053767Y-85848676D01*
X113053767Y-87246167D01*
X113034082Y-87313206D01*
X113017448Y-87333848D01*
X111996115Y-88355181D01*
X111934792Y-88388666D01*
X111908434Y-88391500D01*
X107522943Y-88391500D01*
X107455904Y-88371815D01*
X107435262Y-88355181D01*
X107371583Y-88291502D01*
X107371581Y-88291500D01*
X107314517Y-88258554D01*
X107257454Y-88225608D01*
X107190208Y-88207590D01*
X107130159Y-88191500D01*
X106998375Y-88191500D01*
X106871079Y-88225608D01*
X106756953Y-88291500D01*
X106756950Y-88291502D01*
X106663769Y-88384683D01*
X106663767Y-88384686D01*
X106597875Y-88498812D01*
X106563767Y-88626108D01*
X106563767Y-88757891D01*
X106597875Y-88885187D01*
X106625169Y-88932460D01*
X106663767Y-88999314D01*
X106756953Y-89092500D01*
X106871081Y-89158392D01*
X106998375Y-89192500D01*
X106998377Y-89192500D01*
X107130157Y-89192500D01*
X107130159Y-89192500D01*
X107257453Y-89158392D01*
X107371581Y-89092500D01*
X107435262Y-89028819D01*
X107496585Y-88995334D01*
X107522943Y-88992500D01*
X112123827Y-88992500D01*
X112123829Y-88992500D01*
X112200256Y-88972021D01*
X112268778Y-88932460D01*
X112324727Y-88876511D01*
X113594727Y-87606511D01*
X113621573Y-87560012D01*
X113634288Y-87537989D01*
X113654767Y-87461562D01*
X113654767Y-85848676D01*
X113674452Y-85781637D01*
X113691086Y-85760995D01*
X113715739Y-85736342D01*
X113754767Y-85697314D01*
X113820659Y-85583186D01*
X113854767Y-85455892D01*
X113854767Y-85324108D01*
X113820659Y-85196814D01*
X113754767Y-85082686D01*
X113672512Y-85000431D01*
X113668174Y-84992487D01*
X113660928Y-84987063D01*
X113651691Y-84962301D01*
X113639027Y-84939108D01*
X113639672Y-84930080D01*
X113636509Y-84921599D01*
X113642125Y-84895775D01*
X113644011Y-84869416D01*
X113649828Y-84860364D01*
X113651359Y-84853326D01*
X113672510Y-84825071D01*
X113676395Y-84821186D01*
X113692757Y-84804823D01*
X113754077Y-84771338D01*
X113823769Y-84776321D01*
X113868119Y-84804823D01*
X114541448Y-85478152D01*
X114574933Y-85539475D01*
X114577767Y-85565833D01*
X114577767Y-96136167D01*
X114558082Y-96203206D01*
X114541448Y-96223848D01*
X113520115Y-97245181D01*
X113458792Y-97278666D01*
X113432434Y-97281500D01*
X112564888Y-97281500D01*
X112497849Y-97261815D01*
X112452094Y-97209011D01*
X112442150Y-97139853D01*
X112471175Y-97076297D01*
X112477207Y-97069819D01*
X112921192Y-96625834D01*
X113369127Y-96177899D01*
X113369132Y-96177895D01*
X113379335Y-96167691D01*
X113379337Y-96167691D01*
X113463958Y-96083070D01*
X113523794Y-95979431D01*
X113534091Y-95941004D01*
X113544164Y-95903413D01*
X113550522Y-95879680D01*
X113554768Y-95863836D01*
X113554768Y-95744164D01*
X113554768Y-95736569D01*
X113554767Y-95736551D01*
X113554767Y-91478559D01*
X113564208Y-91431102D01*
X113566655Y-91425192D01*
X113566659Y-91425186D01*
X113600767Y-91297892D01*
X113600767Y-91166108D01*
X113566659Y-91038814D01*
X113500767Y-90924686D01*
X113407581Y-90831500D01*
X113326719Y-90784814D01*
X113293454Y-90765608D01*
X113227738Y-90748000D01*
X113166159Y-90731500D01*
X113034375Y-90731500D01*
X112907079Y-90765608D01*
X112792953Y-90831500D01*
X112792950Y-90831502D01*
X112699769Y-90924683D01*
X112699767Y-90924686D01*
X112633875Y-91038812D01*
X112599767Y-91166108D01*
X112599767Y-91297891D01*
X112633875Y-91425186D01*
X112636326Y-91431102D01*
X112645767Y-91478559D01*
X112645767Y-95564378D01*
X112626082Y-95631417D01*
X112609448Y-95652059D01*
X111932326Y-96329181D01*
X111871003Y-96362666D01*
X111844645Y-96365500D01*
X103941889Y-96365500D01*
X103874850Y-96345815D01*
X103854208Y-96329181D01*
X102669086Y-95144059D01*
X102635601Y-95082736D01*
X102632767Y-95056378D01*
X102632767Y-92825838D01*
X102632768Y-92825825D01*
X102632768Y-92696165D01*
X102631713Y-92692229D01*
X102601794Y-92580570D01*
X102601794Y-92580569D01*
X102601794Y-92580568D01*
X102575411Y-92534872D01*
X102541958Y-92476930D01*
X102457337Y-92392309D01*
X102457336Y-92392308D01*
X102453006Y-92387978D01*
X102452995Y-92387968D01*
X100693208Y-90628181D01*
X100659723Y-90566858D01*
X100664707Y-90497166D01*
X100706579Y-90441233D01*
X100772043Y-90416816D01*
X100780889Y-90416500D01*
X102499707Y-90416500D01*
X102547161Y-90425939D01*
X102553073Y-90428387D01*
X102553081Y-90428392D01*
X102680375Y-90462500D01*
X102680377Y-90462500D01*
X102812157Y-90462500D01*
X102812159Y-90462500D01*
X102939453Y-90428392D01*
X103053581Y-90362500D01*
X103146767Y-90269314D01*
X103212659Y-90155186D01*
X103246767Y-90027892D01*
X103246767Y-89896108D01*
X103212659Y-89768814D01*
X103146767Y-89654686D01*
X103083085Y-89591004D01*
X103049601Y-89529680D01*
X103046767Y-89503323D01*
X103046767Y-86013833D01*
X103066452Y-85946794D01*
X103083086Y-85926152D01*
X104044419Y-84964819D01*
X104105742Y-84931334D01*
X104132100Y-84928500D01*
X108323591Y-84928500D01*
X108390630Y-84948185D01*
X108411272Y-84964819D01*
X108474953Y-85028500D01*
X108589081Y-85094392D01*
X108716375Y-85128500D01*
X108716377Y-85128500D01*
X108848157Y-85128500D01*
X108848159Y-85128500D01*
X108975453Y-85094392D01*
X109089581Y-85028500D01*
X109182767Y-84935314D01*
X109248659Y-84821186D01*
X109282767Y-84693892D01*
X109282767Y-84562108D01*
X109248659Y-84434814D01*
X109182767Y-84320686D01*
X109089581Y-84227500D01*
X109017514Y-84185892D01*
X108975454Y-84161608D01*
X108911806Y-84144554D01*
X108848159Y-84127500D01*
X108716375Y-84127500D01*
X108589079Y-84161608D01*
X108474953Y-84227500D01*
X108474950Y-84227502D01*
X108411272Y-84291181D01*
X108349949Y-84324666D01*
X108323591Y-84327500D01*
X103916705Y-84327500D01*
X103865753Y-84341152D01*
X103840277Y-84347979D01*
X103781201Y-84382087D01*
X103781200Y-84382086D01*
X103771759Y-84387537D01*
X103771754Y-84387541D01*
X102505808Y-85653487D01*
X102505802Y-85653495D01*
X102466249Y-85722004D01*
X102466246Y-85722009D01*
X102445767Y-85798439D01*
X102445767Y-89383500D01*
X102426082Y-89450539D01*
X102373278Y-89496294D01*
X102321767Y-89507500D01*
X99444107Y-89507500D01*
X99444103Y-89507499D01*
X99324431Y-89507499D01*
X99324427Y-89507500D01*
X95058827Y-89507500D01*
X95011373Y-89498061D01*
X95005457Y-89495610D01*
X95005453Y-89495608D01*
X94878159Y-89461500D01*
X94746375Y-89461500D01*
X94619079Y-89495608D01*
X94504953Y-89561500D01*
X94504950Y-89561502D01*
X94411769Y-89654683D01*
X94411767Y-89654686D01*
X94345875Y-89768812D01*
X94311767Y-89896108D01*
X65754767Y-89896108D01*
X65754767Y-89178358D01*
X65774452Y-89111319D01*
X65827256Y-89065564D01*
X65896414Y-89055620D01*
X65954253Y-89079982D01*
X66118500Y-89206013D01*
X66337031Y-89332182D01*
X66337046Y-89332189D01*
X66570169Y-89428751D01*
X66813913Y-89494061D01*
X67064088Y-89526999D01*
X67064103Y-89527000D01*
X67316431Y-89527000D01*
X67316445Y-89526999D01*
X67566620Y-89494061D01*
X67810364Y-89428751D01*
X68043487Y-89332189D01*
X68043501Y-89332182D01*
X68262034Y-89206012D01*
X68363142Y-89128428D01*
X67663239Y-88428525D01*
X67795857Y-88339913D01*
X67928180Y-88207590D01*
X68016792Y-88074972D01*
X68716695Y-88774875D01*
X68794279Y-88673767D01*
X68920449Y-88455234D01*
X68920456Y-88455220D01*
X69017018Y-88222097D01*
X69082328Y-87978353D01*
X69115266Y-87728178D01*
X69115267Y-87728164D01*
X69115267Y-87475828D01*
X69114885Y-87472923D01*
X69550267Y-87472923D01*
X69550267Y-87731076D01*
X69590648Y-87986030D01*
X69670421Y-88231543D01*
X69787613Y-88461547D01*
X69867378Y-88571333D01*
X69867378Y-88571334D01*
X70505034Y-87933677D01*
X70516764Y-87961995D01*
X70599937Y-88086472D01*
X70705795Y-88192330D01*
X70830272Y-88275503D01*
X70858588Y-88287231D01*
X70220931Y-88924887D01*
X70330719Y-89004653D01*
X70560723Y-89121845D01*
X70806236Y-89201618D01*
X71061191Y-89242000D01*
X71319343Y-89242000D01*
X71574297Y-89201618D01*
X71819810Y-89121845D01*
X72049814Y-89004653D01*
X72159600Y-88924887D01*
X72159601Y-88924887D01*
X71521945Y-88287232D01*
X71550262Y-88275503D01*
X71674739Y-88192330D01*
X71780597Y-88086472D01*
X71863770Y-87961995D01*
X71875499Y-87933678D01*
X72513154Y-88571334D01*
X72513154Y-88571333D01*
X72592920Y-88461547D01*
X72710112Y-88231543D01*
X72789885Y-87986030D01*
X72830267Y-87731076D01*
X72830267Y-87472923D01*
X72789885Y-87217969D01*
X72710112Y-86972456D01*
X72592920Y-86742452D01*
X72513154Y-86632665D01*
X72513154Y-86632664D01*
X71875498Y-87270320D01*
X71863770Y-87242005D01*
X71780597Y-87117528D01*
X71674739Y-87011670D01*
X71550262Y-86928497D01*
X71521945Y-86916767D01*
X72159601Y-86279111D01*
X72091871Y-86229902D01*
X76003767Y-86229902D01*
X76003767Y-86466097D01*
X76040713Y-86699368D01*
X76113700Y-86923996D01*
X76158373Y-87011670D01*
X76220924Y-87134433D01*
X76359750Y-87325510D01*
X76526757Y-87492517D01*
X76717834Y-87631343D01*
X76817258Y-87682002D01*
X76928270Y-87738566D01*
X76928272Y-87738566D01*
X76928275Y-87738568D01*
X77048679Y-87777689D01*
X77152898Y-87811553D01*
X77386170Y-87848500D01*
X77386175Y-87848500D01*
X77622364Y-87848500D01*
X77855635Y-87811553D01*
X78080259Y-87738568D01*
X78290700Y-87631343D01*
X78481777Y-87492517D01*
X78648784Y-87325510D01*
X78787610Y-87134433D01*
X78894835Y-86923992D01*
X78967820Y-86699368D01*
X78997897Y-86509469D01*
X79004767Y-86466096D01*
X79004767Y-86229902D01*
X78967820Y-85996631D01*
X78903423Y-85798439D01*
X78894835Y-85772008D01*
X78894833Y-85772005D01*
X78894833Y-85772003D01*
X78805939Y-85597540D01*
X78787610Y-85561567D01*
X78748804Y-85508155D01*
X85334267Y-85508155D01*
X85334267Y-86156000D01*
X86251255Y-86156000D01*
X86218342Y-86213007D01*
X86184267Y-86340174D01*
X86184267Y-86471826D01*
X86218342Y-86598993D01*
X86251255Y-86656000D01*
X85334267Y-86656000D01*
X85334267Y-87303844D01*
X85340668Y-87363372D01*
X85340670Y-87363379D01*
X85390912Y-87498086D01*
X85390916Y-87498093D01*
X85477076Y-87613187D01*
X85477079Y-87613190D01*
X85592173Y-87699350D01*
X85592180Y-87699354D01*
X85726887Y-87749596D01*
X85726894Y-87749598D01*
X85786422Y-87755999D01*
X85786439Y-87756000D01*
X86434267Y-87756000D01*
X86434267Y-86839012D01*
X86491274Y-86871925D01*
X86618441Y-86906000D01*
X86750093Y-86906000D01*
X86877260Y-86871925D01*
X86934267Y-86839012D01*
X86934267Y-87756000D01*
X87582095Y-87756000D01*
X87582111Y-87755999D01*
X87641639Y-87749598D01*
X87641646Y-87749596D01*
X87776353Y-87699354D01*
X87776360Y-87699350D01*
X87891454Y-87613190D01*
X87891457Y-87613187D01*
X87977617Y-87498093D01*
X87977621Y-87498086D01*
X88027863Y-87363379D01*
X88027865Y-87363372D01*
X88034266Y-87303844D01*
X88034267Y-87303827D01*
X88034267Y-86901564D01*
X88053952Y-86834525D01*
X88106756Y-86788770D01*
X88175914Y-86778826D01*
X88239470Y-86807851D01*
X88272828Y-86854112D01*
X88280206Y-86871925D01*
X88293326Y-86903598D01*
X88309963Y-86928497D01*
X88408291Y-87075657D01*
X88554609Y-87221975D01*
X88554612Y-87221977D01*
X88726669Y-87336941D01*
X88917847Y-87416130D01*
X89120797Y-87456499D01*
X89120801Y-87456500D01*
X89120802Y-87456500D01*
X89327733Y-87456500D01*
X89327734Y-87456499D01*
X89530687Y-87416130D01*
X89721865Y-87336941D01*
X89893922Y-87221977D01*
X90040244Y-87075655D01*
X90155208Y-86903598D01*
X90234397Y-86712420D01*
X90274767Y-86509465D01*
X90274767Y-86302535D01*
X90234397Y-86099580D01*
X90155208Y-85908402D01*
X90040244Y-85736345D01*
X90040242Y-85736342D01*
X89893924Y-85590024D01*
X89807893Y-85532541D01*
X89771397Y-85508155D01*
X95997267Y-85508155D01*
X95997267Y-86156000D01*
X96914255Y-86156000D01*
X96881342Y-86213007D01*
X96847267Y-86340174D01*
X96847267Y-86471826D01*
X96881342Y-86598993D01*
X96914255Y-86656000D01*
X95997267Y-86656000D01*
X95997267Y-87303844D01*
X96003668Y-87363372D01*
X96003670Y-87363379D01*
X96053912Y-87498086D01*
X96053916Y-87498093D01*
X96140076Y-87613187D01*
X96140079Y-87613190D01*
X96255173Y-87699350D01*
X96255180Y-87699354D01*
X96389887Y-87749596D01*
X96389894Y-87749598D01*
X96449422Y-87755999D01*
X96449439Y-87756000D01*
X97097267Y-87756000D01*
X97097267Y-86839012D01*
X97154274Y-86871925D01*
X97281441Y-86906000D01*
X97413093Y-86906000D01*
X97540260Y-86871925D01*
X97597267Y-86839012D01*
X97597267Y-87756000D01*
X98245095Y-87756000D01*
X98245111Y-87755999D01*
X98304639Y-87749598D01*
X98304646Y-87749596D01*
X98439353Y-87699354D01*
X98439360Y-87699350D01*
X98554454Y-87613190D01*
X98554457Y-87613187D01*
X98640617Y-87498093D01*
X98640621Y-87498086D01*
X98690863Y-87363379D01*
X98690865Y-87363372D01*
X98697266Y-87303844D01*
X98697267Y-87303827D01*
X98697267Y-86901564D01*
X98716952Y-86834525D01*
X98769756Y-86788770D01*
X98838914Y-86778826D01*
X98902470Y-86807851D01*
X98935828Y-86854112D01*
X98943206Y-86871925D01*
X98956326Y-86903598D01*
X98972963Y-86928497D01*
X99071291Y-87075657D01*
X99217609Y-87221975D01*
X99217612Y-87221977D01*
X99389669Y-87336941D01*
X99580847Y-87416130D01*
X99783797Y-87456499D01*
X99783801Y-87456500D01*
X99783802Y-87456500D01*
X99990733Y-87456500D01*
X99990734Y-87456499D01*
X100193687Y-87416130D01*
X100384865Y-87336941D01*
X100556922Y-87221977D01*
X100703244Y-87075655D01*
X100818208Y-86903598D01*
X100897397Y-86712420D01*
X100937767Y-86509465D01*
X100937767Y-86302535D01*
X100897397Y-86099580D01*
X100818208Y-85908402D01*
X100703244Y-85736345D01*
X100703242Y-85736342D01*
X100556924Y-85590024D01*
X100470893Y-85532541D01*
X100384865Y-85475059D01*
X100338587Y-85455890D01*
X100193687Y-85395870D01*
X100193679Y-85395868D01*
X99990736Y-85355500D01*
X99990732Y-85355500D01*
X99783802Y-85355500D01*
X99783797Y-85355500D01*
X99580854Y-85395868D01*
X99580846Y-85395870D01*
X99389670Y-85475058D01*
X99217609Y-85590024D01*
X99071291Y-85736342D01*
X98956325Y-85908403D01*
X98935828Y-85957888D01*
X98891987Y-86012291D01*
X98825693Y-86034356D01*
X98757993Y-86017077D01*
X98710383Y-85965939D01*
X98697267Y-85910435D01*
X98697267Y-85508172D01*
X98697266Y-85508155D01*
X98690865Y-85448627D01*
X98690863Y-85448620D01*
X98640621Y-85313913D01*
X98640617Y-85313906D01*
X98554457Y-85198812D01*
X98554454Y-85198809D01*
X98439360Y-85112649D01*
X98439353Y-85112645D01*
X98304646Y-85062403D01*
X98304639Y-85062401D01*
X98245111Y-85056000D01*
X97597267Y-85056000D01*
X97597267Y-85972988D01*
X97540260Y-85940075D01*
X97413093Y-85906000D01*
X97281441Y-85906000D01*
X97154274Y-85940075D01*
X97097267Y-85972988D01*
X97097267Y-85056000D01*
X96449422Y-85056000D01*
X96389894Y-85062401D01*
X96389887Y-85062403D01*
X96255180Y-85112645D01*
X96255173Y-85112649D01*
X96140079Y-85198809D01*
X96140076Y-85198812D01*
X96053916Y-85313906D01*
X96053912Y-85313913D01*
X96003670Y-85448620D01*
X96003668Y-85448627D01*
X95997267Y-85508155D01*
X89771397Y-85508155D01*
X89721865Y-85475059D01*
X89675587Y-85455890D01*
X89530687Y-85395870D01*
X89530679Y-85395868D01*
X89327736Y-85355500D01*
X89327732Y-85355500D01*
X89120802Y-85355500D01*
X89120797Y-85355500D01*
X88917854Y-85395868D01*
X88917846Y-85395870D01*
X88726670Y-85475058D01*
X88554609Y-85590024D01*
X88408291Y-85736342D01*
X88293325Y-85908403D01*
X88272828Y-85957888D01*
X88228987Y-86012291D01*
X88162693Y-86034356D01*
X88094993Y-86017077D01*
X88047383Y-85965939D01*
X88034267Y-85910435D01*
X88034267Y-85508172D01*
X88034266Y-85508155D01*
X88027865Y-85448627D01*
X88027863Y-85448620D01*
X87977621Y-85313913D01*
X87977617Y-85313906D01*
X87891457Y-85198812D01*
X87891454Y-85198809D01*
X87776360Y-85112649D01*
X87776353Y-85112645D01*
X87641646Y-85062403D01*
X87641639Y-85062401D01*
X87582111Y-85056000D01*
X86934267Y-85056000D01*
X86934267Y-85972988D01*
X86877260Y-85940075D01*
X86750093Y-85906000D01*
X86618441Y-85906000D01*
X86491274Y-85940075D01*
X86434267Y-85972988D01*
X86434267Y-85056000D01*
X85786422Y-85056000D01*
X85726894Y-85062401D01*
X85726887Y-85062403D01*
X85592180Y-85112645D01*
X85592173Y-85112649D01*
X85477079Y-85198809D01*
X85477076Y-85198812D01*
X85390916Y-85313906D01*
X85390912Y-85313913D01*
X85340670Y-85448620D01*
X85340668Y-85448627D01*
X85334267Y-85508155D01*
X78748804Y-85508155D01*
X78648784Y-85370490D01*
X78481777Y-85203483D01*
X78290700Y-85064657D01*
X78273710Y-85056000D01*
X78080263Y-84957433D01*
X77855635Y-84884446D01*
X77622364Y-84847500D01*
X77622359Y-84847500D01*
X77386175Y-84847500D01*
X77386170Y-84847500D01*
X77152898Y-84884446D01*
X76928270Y-84957433D01*
X76717833Y-85064657D01*
X76629963Y-85128499D01*
X76526757Y-85203483D01*
X76526755Y-85203485D01*
X76526754Y-85203485D01*
X76359752Y-85370487D01*
X76359752Y-85370488D01*
X76359750Y-85370490D01*
X76302985Y-85448620D01*
X76220924Y-85561566D01*
X76113700Y-85772003D01*
X76040713Y-85996631D01*
X76003767Y-86229902D01*
X72091871Y-86229902D01*
X72049814Y-86199346D01*
X71819810Y-86082154D01*
X71574297Y-86002381D01*
X71319343Y-85962000D01*
X71061191Y-85962000D01*
X70806236Y-86002381D01*
X70560723Y-86082154D01*
X70330721Y-86199345D01*
X70220931Y-86279111D01*
X70858588Y-86916767D01*
X70830272Y-86928497D01*
X70705795Y-87011670D01*
X70599937Y-87117528D01*
X70516764Y-87242005D01*
X70505035Y-87270321D01*
X69867378Y-86632664D01*
X69787612Y-86742454D01*
X69670421Y-86972456D01*
X69590648Y-87217969D01*
X69550267Y-87472923D01*
X69114885Y-87472923D01*
X69082328Y-87225646D01*
X69017018Y-86981902D01*
X68920456Y-86748779D01*
X68920449Y-86748764D01*
X68794280Y-86530233D01*
X68716697Y-86429123D01*
X68716695Y-86429123D01*
X68016791Y-87129026D01*
X67928180Y-86996410D01*
X67795857Y-86864087D01*
X67663238Y-86775474D01*
X68363142Y-86075570D01*
X68363142Y-86075569D01*
X68262033Y-85997986D01*
X68043502Y-85871817D01*
X68043487Y-85871810D01*
X67810364Y-85775248D01*
X67566620Y-85709938D01*
X67316445Y-85677000D01*
X67064088Y-85677000D01*
X66813913Y-85709938D01*
X66570169Y-85775248D01*
X66337046Y-85871810D01*
X66337031Y-85871817D01*
X66118500Y-85997986D01*
X65954253Y-86124017D01*
X65889084Y-86149211D01*
X65820639Y-86135172D01*
X65770649Y-86086358D01*
X65754767Y-86025641D01*
X65754767Y-83722500D01*
X65774452Y-83655461D01*
X65827256Y-83609706D01*
X65878767Y-83598500D01*
X123554093Y-83598500D01*
X123554095Y-83598500D01*
X123646164Y-83560364D01*
X123716631Y-83489897D01*
X123754767Y-83397828D01*
X123754767Y-69068108D01*
X145111767Y-69068108D01*
X145111767Y-69199891D01*
X145145875Y-69327187D01*
X145174060Y-69376004D01*
X145211767Y-69441314D01*
X145304953Y-69534500D01*
X145419081Y-69600392D01*
X145546375Y-69634500D01*
X145546377Y-69634500D01*
X145678157Y-69634500D01*
X145678159Y-69634500D01*
X145805453Y-69600392D01*
X145919581Y-69534500D01*
X146012767Y-69441314D01*
X146078659Y-69327186D01*
X146112767Y-69199892D01*
X146112767Y-69109833D01*
X146121411Y-69080395D01*
X146127935Y-69050405D01*
X146131690Y-69045388D01*
X146132452Y-69042794D01*
X146149086Y-69022151D01*
X146208420Y-68962818D01*
X146269744Y-68929334D01*
X146296101Y-68926500D01*
X167184012Y-68926500D01*
X167251051Y-68946185D01*
X167296806Y-68998989D01*
X167306750Y-69068147D01*
X167291399Y-69112501D01*
X167243875Y-69194812D01*
X167209767Y-69322108D01*
X167209767Y-69453891D01*
X167243875Y-69581187D01*
X167264247Y-69616471D01*
X167309767Y-69695314D01*
X167309769Y-69695316D01*
X167373448Y-69758995D01*
X167406933Y-69820318D01*
X167409767Y-69846676D01*
X167409767Y-72739323D01*
X167390082Y-72806362D01*
X167373449Y-72827004D01*
X167309767Y-72890686D01*
X167243875Y-73004812D01*
X167209767Y-73132108D01*
X167209767Y-73263891D01*
X167243875Y-73391187D01*
X167250731Y-73403061D01*
X167309767Y-73505314D01*
X167402953Y-73598500D01*
X167517081Y-73664392D01*
X167644375Y-73698500D01*
X167644377Y-73698500D01*
X167776157Y-73698500D01*
X167776159Y-73698500D01*
X167903453Y-73664392D01*
X168017581Y-73598500D01*
X168110767Y-73505314D01*
X168176659Y-73391186D01*
X168210767Y-73263892D01*
X168210767Y-73132108D01*
X168176659Y-73004814D01*
X168110767Y-72890686D01*
X168047085Y-72827004D01*
X168013601Y-72765680D01*
X168010767Y-72739323D01*
X168010767Y-69846676D01*
X168030452Y-69779637D01*
X168047086Y-69758995D01*
X168110767Y-69695314D01*
X168176659Y-69581186D01*
X168210767Y-69453892D01*
X168210767Y-69322108D01*
X168176659Y-69194814D01*
X168129134Y-69112499D01*
X168112662Y-69044600D01*
X168135514Y-68978573D01*
X168190435Y-68935383D01*
X168236522Y-68926500D01*
X168550434Y-68926500D01*
X168617473Y-68946185D01*
X168638115Y-68962819D01*
X169255448Y-69580152D01*
X169288933Y-69641475D01*
X169291767Y-69667833D01*
X169291767Y-73213266D01*
X169272082Y-73280305D01*
X169219278Y-73326060D01*
X169206092Y-73331194D01*
X169131435Y-73355453D01*
X169131429Y-73355455D01*
X168963067Y-73441240D01*
X168875846Y-73504610D01*
X168810194Y-73552310D01*
X168810192Y-73552312D01*
X168810191Y-73552312D01*
X168676579Y-73685924D01*
X168676579Y-73685925D01*
X168676577Y-73685927D01*
X168628877Y-73751579D01*
X168565507Y-73838800D01*
X168479721Y-74007163D01*
X168421326Y-74186881D01*
X168391767Y-74373513D01*
X168391767Y-74562486D01*
X168421326Y-74749118D01*
X168479721Y-74928836D01*
X168565507Y-75097199D01*
X168676577Y-75250073D01*
X168810194Y-75383690D01*
X168963068Y-75494760D01*
X169042614Y-75535290D01*
X169131430Y-75580545D01*
X169131432Y-75580545D01*
X169131435Y-75580547D01*
X169227764Y-75611846D01*
X169311148Y-75638940D01*
X169497781Y-75668500D01*
X169497786Y-75668500D01*
X169686753Y-75668500D01*
X169873385Y-75638940D01*
X170053099Y-75580547D01*
X170221466Y-75494760D01*
X170374340Y-75383690D01*
X170507957Y-75250073D01*
X170619027Y-75097199D01*
X170704814Y-74928832D01*
X170763207Y-74749118D01*
X170773391Y-74684819D01*
X170792767Y-74562486D01*
X170792767Y-74373513D01*
X174891767Y-74373513D01*
X174891767Y-74562486D01*
X174921326Y-74749118D01*
X174979721Y-74928836D01*
X175065507Y-75097199D01*
X175176577Y-75250073D01*
X175310194Y-75383690D01*
X175463068Y-75494760D01*
X175542614Y-75535290D01*
X175631430Y-75580545D01*
X175631432Y-75580545D01*
X175631435Y-75580547D01*
X175727764Y-75611846D01*
X175811148Y-75638940D01*
X175997781Y-75668500D01*
X175997786Y-75668500D01*
X176186753Y-75668500D01*
X176373385Y-75638940D01*
X176553099Y-75580547D01*
X176721466Y-75494760D01*
X176874340Y-75383690D01*
X177007957Y-75250073D01*
X177119027Y-75097199D01*
X177204814Y-74928832D01*
X177263207Y-74749118D01*
X177273391Y-74684819D01*
X177292767Y-74562486D01*
X177292767Y-74373513D01*
X177263207Y-74186881D01*
X177217656Y-74046692D01*
X177204814Y-74007168D01*
X177204812Y-74007165D01*
X177204812Y-74007163D01*
X177119026Y-73838800D01*
X177084441Y-73791198D01*
X177007957Y-73685927D01*
X176874340Y-73552310D01*
X176721466Y-73441240D01*
X176553103Y-73355454D01*
X176373385Y-73297059D01*
X176186753Y-73267500D01*
X176186748Y-73267500D01*
X175997786Y-73267500D01*
X175997781Y-73267500D01*
X175811148Y-73297059D01*
X175631430Y-73355454D01*
X175463067Y-73441240D01*
X175375846Y-73504610D01*
X175310194Y-73552310D01*
X175310192Y-73552312D01*
X175310191Y-73552312D01*
X175176579Y-73685924D01*
X175176579Y-73685925D01*
X175176577Y-73685927D01*
X175128877Y-73751579D01*
X175065507Y-73838800D01*
X174979721Y-74007163D01*
X174921326Y-74186881D01*
X174891767Y-74373513D01*
X170792767Y-74373513D01*
X170763207Y-74186881D01*
X170717656Y-74046692D01*
X170704814Y-74007168D01*
X170704812Y-74007165D01*
X170704812Y-74007163D01*
X170619026Y-73838800D01*
X170584441Y-73791198D01*
X170507957Y-73685927D01*
X170374340Y-73552310D01*
X170221466Y-73441240D01*
X170053104Y-73355455D01*
X170053101Y-73355454D01*
X170053099Y-73355453D01*
X169978445Y-73331196D01*
X169920772Y-73291758D01*
X169893575Y-73227399D01*
X169892767Y-73213266D01*
X169892767Y-71229902D01*
X207003767Y-71229902D01*
X207003767Y-71466097D01*
X207040713Y-71699368D01*
X207113700Y-71923996D01*
X207220924Y-72134433D01*
X207359750Y-72325510D01*
X207526757Y-72492517D01*
X207717834Y-72631343D01*
X207817258Y-72682002D01*
X207928270Y-72738566D01*
X207928272Y-72738566D01*
X207928275Y-72738568D01*
X208011717Y-72765680D01*
X208152898Y-72811553D01*
X208386170Y-72848500D01*
X208386175Y-72848500D01*
X208622364Y-72848500D01*
X208855635Y-72811553D01*
X208871611Y-72806362D01*
X209080259Y-72738568D01*
X209290700Y-72631343D01*
X209481777Y-72492517D01*
X209648784Y-72325510D01*
X209787610Y-72134433D01*
X209894835Y-71923992D01*
X209967820Y-71699368D01*
X210004767Y-71466097D01*
X210004767Y-71229902D01*
X209967820Y-70996631D01*
X209894833Y-70772003D01*
X209787609Y-70561566D01*
X209648784Y-70370490D01*
X209481777Y-70203483D01*
X209290700Y-70064657D01*
X209080263Y-69957433D01*
X208855635Y-69884446D01*
X208622364Y-69847500D01*
X208622359Y-69847500D01*
X208386175Y-69847500D01*
X208386170Y-69847500D01*
X208152898Y-69884446D01*
X207928270Y-69957433D01*
X207717833Y-70064657D01*
X207608817Y-70143862D01*
X207526757Y-70203483D01*
X207526755Y-70203485D01*
X207526754Y-70203485D01*
X207359752Y-70370487D01*
X207359752Y-70370488D01*
X207359750Y-70370490D01*
X207300129Y-70452550D01*
X207220924Y-70561566D01*
X207113700Y-70772003D01*
X207040713Y-70996631D01*
X207003767Y-71229902D01*
X169892767Y-71229902D01*
X169892767Y-69452439D01*
X169872287Y-69376009D01*
X169872284Y-69376004D01*
X169832731Y-69307495D01*
X169832725Y-69307487D01*
X168910779Y-68385541D01*
X168910771Y-68385535D01*
X168842262Y-68345982D01*
X168842257Y-68345979D01*
X168816780Y-68339152D01*
X168765829Y-68325500D01*
X146080705Y-68325500D01*
X146042491Y-68335739D01*
X146004276Y-68345979D01*
X146004271Y-68345982D01*
X145935762Y-68385535D01*
X145935754Y-68385541D01*
X145724114Y-68597181D01*
X145662791Y-68630666D01*
X145636433Y-68633500D01*
X145546375Y-68633500D01*
X145419079Y-68667608D01*
X145304953Y-68733500D01*
X145304950Y-68733502D01*
X145211769Y-68826683D01*
X145211767Y-68826686D01*
X145145875Y-68940812D01*
X145111767Y-69068108D01*
X123754767Y-69068108D01*
X123754767Y-67722500D01*
X123774452Y-67655461D01*
X123827256Y-67609706D01*
X123878767Y-67598500D01*
X212129767Y-67598500D01*
X212196806Y-67618185D01*
G37*
%TD.AperFunction*%
%TD*%
M02*
